<svg width="21" height="21" viewBox="0 0 21 21" fill="none" xmlns="http://www.w3.org/2000/svg">
<path d="M9.3071 9.28714C9.3071 10.1272 9.3071 10.5473 9.47059 10.8681C9.6144 11.1504 9.84387 11.3798 10.1261 11.5236C10.447 11.6871 10.867 11.6871 11.7071 11.6871H16.2151C17.0121 11.6871 17.4105 11.6871 17.7705 11.9071C18.0409 12.0722 18.3344 12.4529 18.4254 12.7563C18.5466 13.1604 18.4677 13.4608 18.3098 14.0614C17.2602 18.0541 13.6267 21 9.3071 21C4.16749 21 0 16.8304 0 11.6871C0 7.36499 2.94309 3.73105 6.93295 2.68095C7.53324 2.52296 7.83338 2.44396 8.2376 2.56507C8.54104 2.65598 8.92195 2.94961 9.0871 3.21992C9.3071 3.58 9.3071 3.97841 9.3071 4.77523V9.28714Z" fill="#747474"/>
<path d="M11.692 6.91286C11.692 7.75294 11.692 8.17298 11.8554 8.49385C11.9993 8.77609 12.2287 9.00556 12.511 9.14937C12.8318 9.31286 13.2519 9.31286 14.092 9.31286H18.5996C19.3966 9.31286 19.7951 9.31286 20.1552 9.09291C20.4255 8.92775 20.7191 8.54701 20.8101 8.24354C20.9312 7.83938 20.8522 7.53901 20.6942 6.93825C19.8436 3.70409 17.2983 1.15686 14.0661 0.305845C13.4659 0.147819 13.1658 0.0688054 12.7616 0.189888C12.4581 0.28078 12.0771 0.57443 11.912 0.844736C11.692 1.20483 11.692 1.60322 11.692 2.4V6.91286Z" fill="#747474"/>
</svg>
