<svg width="2309" height="1596" viewBox="0 0 2309 1596" fill="none" xmlns="http://www.w3.org/2000/svg">
<path d="M1158.72 1572.63L1158.39 1574.23L1158.72 1572.63C1116.77 1563.98 1086.48 1525.1 1090.3 1482.02C1114.17 1212.71 1161.97 1040.44 1215.68 922.967C1269.38 805.538 1329.02 742.766 1376.85 692.431L1376.89 692.395C1393.35 675.071 1408.47 659.161 1421.44 643.006C1466.54 586.828 1553.61 569.613 1625.47 575.23C1661.35 578.034 1693.12 586.516 1713.65 598.435C1723.92 604.399 1731.2 611.119 1734.89 618.243C1738.51 625.258 1738.74 632.807 1734.63 640.843C1731.71 646.57 1728.18 652.835 1724.37 659.609C1723.09 661.891 1721.77 664.231 1720.43 666.627C1715.14 676.108 1709.56 686.42 1704.53 697.347C1694.47 719.183 1686.53 743.617 1687.49 769.022C1688.35 791.806 1692.83 811.476 1696.68 828.359C1698.07 834.45 1699.37 840.178 1700.4 845.559C1702.34 855.784 1703.27 864.719 1702.01 872.713C1700.77 880.628 1697.38 887.699 1690.49 894.202C1683.34 900.964 1674.28 903.66 1663.96 904.061C1653.59 904.463 1642.13 902.543 1630.34 900.229C1628.29 899.828 1626.24 899.415 1624.18 899.001C1614.45 897.043 1604.62 895.066 1595.35 894.25C1584.11 893.262 1573.38 893.943 1564.33 898.625C1558.31 901.744 1550.33 908.617 1541.39 916.393L1540.12 917.494C1531.4 925.086 1521.65 933.57 1511.46 940.846C1500.77 948.488 1489.75 954.674 1479.11 957.112C1468.56 959.528 1458.45 958.257 1449.25 951.033C1441.05 944.588 1435.72 933.256 1432.31 921.164C1425.26 896.136 1438.9 870.851 1460.29 855.325C1477.08 843.137 1495.3 830.135 1503.56 825.001L1503.7 824.909C1521.5 813.839 1541.73 801.262 1555.3 786.184C1562.13 778.599 1567.37 770.285 1569.75 761.102C1572.13 751.882 1571.6 741.922 1567.1 731.153C1563.52 722.588 1556.04 718.253 1546.31 717.322C1536.68 716.401 1524.66 718.767 1511.35 723.652C1484.69 733.438 1452.13 753.597 1421.65 779.595C1391.17 805.6 1362.62 837.562 1344.06 871.054C1325.52 904.522 1316.82 939.771 1326.52 972.163C1336.52 1005.59 1351.91 1024.5 1371.3 1033.94C1390.59 1043.34 1413.45 1043.16 1437.95 1039.35C1453.27 1036.96 1469.48 1033.1 1486.02 1029.16C1495.85 1026.82 1505.8 1024.45 1515.74 1022.34C1542.56 1016.67 1569.62 1012.86 1595.47 1016.28C1634.4 1021.44 1703.01 1026.44 1739.65 1028.92C1756.17 1030.04 1773.31 1026.54 1785.55 1014.61C1795.29 1005.12 1806.11 991.34 1811.36 973.579C1816.63 955.759 1816.26 934.093 1803.86 909.008C1766.79 833.964 1785.21 756.502 1841.11 690.505C1855.75 673.222 1857.89 650.212 1851.04 625.789C1844.19 601.378 1828.31 575.305 1806.48 551.42C1762.84 503.678 1694.93 464.158 1626.21 464.158C1558.09 464.158 1500.83 468.91 1434.15 505.935C1367.57 542.902 1291.76 611.955 1186.2 740.145C1117.79 823.231 1069.8 942.813 1036.72 1067.88C1003.64 1192.98 985.432 1323.76 976.684 1429.4C970.982 1498.26 911.332 1551.36 843.687 1543.71L783.471 1536.91C749.082 1533.03 719.79 1521.11 699.402 1501.6C679.057 1482.13 667.422 1454.95 668.548 1420.16C672.435 1300.05 694.87 1118.96 699.676 1088.17C703.202 1065.57 706.261 1048.06 712.659 1033.81C718.999 1019.7 728.651 1008.73 745.561 999.396C763.13 989.699 780.388 984.732 797.154 986.002C813.883 987.269 830.355 994.763 846.363 1010.42C856.557 1020.38 863.071 1036.61 867.181 1052.77C871.273 1068.86 872.901 1084.55 873.528 1093.13C873.858 1097.65 874.302 1102.25 875.461 1106.8C877.448 1114.61 881.516 1128.03 888.269 1139.24C894.967 1150.35 904.754 1159.99 918.297 1158.67C936.485 1156.89 948.657 1148.82 956.208 1136.48C963.685 1124.25 966.512 1108.04 966.567 1090.1C966.678 1054.29 955.72 1010.56 946.883 975.287L946.845 975.136L945.835 971.104C945.835 971.104 945.835 971.104 945.835 971.104C938.851 943.19 920.937 919.809 899.285 899.755C877.655 879.722 852.131 862.864 829.711 848.056L829.648 848.014C813.255 837.187 798.596 827.501 788.142 818.416C782.922 813.878 778.839 809.566 776.131 805.419C773.428 801.282 772.167 797.425 772.381 793.737C772.659 788.947 774.268 781.717 777.164 772.405C780.048 763.131 784.169 751.916 789.393 739.203C799.84 713.781 814.668 682.447 832.754 648.812C868.936 581.522 918.081 505.161 971.146 448.543C984.047 434.778 995.293 421.404 1005.93 408.759L1005.94 408.74C1040.09 368.133 1067.96 335.038 1124.99 318.586C1147.66 312.049 1173.12 318.24 1199.13 330.389C1225.1 342.524 1251.26 360.419 1275.22 376.818L1275.26 376.84C1288.05 385.592 1300.22 393.923 1311.34 400.658C1322.45 407.385 1332.65 412.612 1341.49 415.061C1350.32 417.508 1358.23 417.292 1364.24 412.476C1370.18 407.729 1373.71 398.94 1374.97 385.668C1377.51 358.917 1376.38 331.654 1367.69 309.015C1358.96 286.277 1342.6 268.239 1314.92 260.167C1287.77 252.251 1269.51 249.647 1251.34 247.057L1251.34 247.056C1233.21 244.472 1215.18 241.901 1188.31 234.065C1185.13 233.138 1182.99 231.917 1181.64 230.553C1180.33 229.229 1179.68 227.689 1179.6 225.874C1179.43 222.049 1181.78 216.811 1186.9 210.331C1197.04 197.513 1216.73 181.386 1241.51 164.691C1291.01 131.34 1360.02 96.2332 1411.06 81.2921C1484.7 59.7355 1547.84 50.1889 1610.33 53.1505C1672.82 56.1122 1734.77 71.5871 1806.01 100.211C1983.01 171.325 2118.35 261.236 2163.56 447.646C2182.71 526.602 2185.95 577.55 2163.58 655.439C2153.77 689.57 2127.54 712.323 2102.29 734.155L2102.15 734.276C2086.18 748.086 2070.56 761.59 2060.38 777.316C2050.08 793.217 2045.32 811.402 2051.01 834.44C2055.23 851.485 2060.02 865.535 2067.35 877.946C2074.69 890.38 2084.51 901.076 2098.66 911.504C2108.09 918.451 2116.4 920.623 2123.79 918.382C2131.08 916.171 2136.84 909.84 2141.65 901.274C2151.21 884.21 2157.82 856.648 2164.64 828.228L2164.71 827.938C2171.88 798.072 2179.31 767.165 2190.56 745.264C2196.17 734.327 2202.64 725.848 2210.31 720.846C2217.89 715.903 2226.81 714.251 2237.66 717.243C2255.71 722.22 2269.21 736.325 2279.28 755.5C2289.34 774.67 2295.85 798.668 2300 822.93C2308.3 871.442 2307.13 920.517 2306.66 932.922C2306.58 935.02 2306.55 936.932 2306.56 939.033C2306.61 952.701 2306.14 1011.16 2295.36 1078.61C2284.57 1146.14 2263.5 1222.3 2222.58 1271.67C2216.65 1278.83 2210.75 1286.11 2204.86 1293.37L2204.81 1293.43C2177.28 1327.39 2150.02 1361 2119.57 1382.56C2089.25 1404.03 2055.94 1413.44 2016.11 1399.2C1992.64 1390.82 1981.42 1366.43 1976.57 1334.99C1971.72 1303.66 1973.34 1266.19 1974.78 1232.85L1974.78 1232.82C1975.42 1217.97 1976.02 1203.94 1975.99 1191.72C1975.96 1179.52 1975.3 1168.96 1973.33 1161.12C1971.4 1153.4 1968 1147.5 1961.84 1146.09C1958.83 1145.4 1955.46 1145.88 1951.75 1147.38C1948.04 1148.87 1943.87 1151.43 1939.18 1155.1C1913.06 1175.5 1904.6 1196.44 1893.08 1224.95L1893.03 1225.08L1893.03 1225.08C1891.83 1228.04 1890.6 1231.09 1889.32 1234.22C1874.51 1270.31 1883.74 1304.01 1892.54 1336.15L1892.6 1336.38C1902.36 1372.01 1911.49 1405.66 1889.48 1440.36C1852.53 1498.6 1803.4 1511.03 1735.95 1527.28C1727.01 1529.43 1718.07 1531.75 1709.2 1534.05C1676.67 1542.49 1645.12 1550.66 1616.65 1550.07C1588.34 1549.48 1563.23 1540.22 1543.4 1513.79C1525.45 1489.86 1534 1463.71 1543.17 1436.1L1543.3 1435.71C1552.17 1409.01 1561.48 1380.95 1543.45 1354.86C1532.84 1339.53 1522.46 1327.05 1510.06 1317.73C1497.62 1308.37 1483.24 1302.24 1464.72 1299.45C1453.46 1297.75 1445.18 1299.02 1439.5 1303.21C1433.78 1307.43 1431.17 1314.23 1430.44 1322.44C1429.7 1330.66 1430.81 1340.61 1432.83 1351.6C1434.87 1362.6 1437.86 1374.8 1440.98 1387.52L1440.99 1387.56C1446.33 1409.32 1452.05 1432.68 1454.22 1454.81C1456.39 1476.97 1454.96 1497.61 1446.25 1514.05C1432.12 1540.69 1414.87 1559.2 1395.15 1571.65C1375.42 1584.1 1353.11 1590.55 1328.78 1592.92C1280.02 1597.66 1223.47 1586 1163.86 1573.69L1158.72 1572.63ZM329.009 1086.95L328.922 1086.78L328.802 1086.63L328.788 1086.61C328.775 1086.59 328.754 1086.56 328.726 1086.53C328.669 1086.45 328.583 1086.34 328.47 1086.19C328.244 1085.88 327.909 1085.43 327.488 1084.82C326.645 1083.62 325.453 1081.84 324.079 1079.56C321.327 1074.99 317.852 1068.42 314.961 1060.46C309.174 1044.52 305.777 1023.12 315.012 1000.83C322.364 983.091 339.005 969.143 361.172 958.643C383.311 948.156 410.718 941.226 439.169 937.387C467.607 933.55 496.999 932.812 523.061 934.656C549.16 936.503 571.767 940.929 586.712 947.327C593.948 950.426 599.489 957.912 603.378 969.562C607.256 981.176 609.368 996.57 610.006 1014.86C611.281 1051.43 606.656 1099.1 598.957 1150.16C583.562 1252.25 555.939 1367.49 539.038 1433.68C530.719 1466.25 503.589 1489.51 470.64 1488.51C413.641 1486.78 321.116 1474.82 231.871 1423.61C142.687 1372.43 56.6473 1281.96 12.6216 1122.92C-2.60284 1067.93 -0.351637 1003.93 12.3464 939.286C25.0406 874.657 48.1487 809.51 74.5006 752.284C100.856 695.05 130.419 645.818 155.979 613.006C168.772 596.582 180.484 584.374 190.217 577.317C195.09 573.783 199.344 571.631 202.894 570.817C206.39 570.016 209.061 570.531 211.104 572.14C227.816 585.293 239.068 601.187 250.424 617.228C253.219 621.176 256.019 625.132 258.909 629.058C273.495 648.876 290.182 667.617 319.462 679.211C363.069 696.478 412.436 680.682 448.311 657.007C466.283 645.147 481.041 631.204 490.147 618.187C494.697 611.682 497.895 605.325 499.33 599.508C500.766 593.687 500.473 588.226 497.762 583.768C492.954 575.861 487.701 570.636 481.995 567.61C476.266 564.571 470.246 563.837 464.08 564.63C451.926 566.194 438.924 573.763 425.824 581.531C425.391 581.788 424.958 582.045 424.524 582.302C411.658 589.936 398.571 597.702 385.358 601.102C371.863 604.575 358.341 603.465 344.894 592.734C284.163 544.27 291.022 469.035 315.071 393.204C332.871 337.077 368.489 304.064 414.148 282.463C459.928 260.805 515.715 250.656 573.781 240.329C636.818 229.116 709.849 227.941 770.566 239.01C800.924 244.545 828.112 253.125 849.411 264.974C870.715 276.827 885.972 291.859 892.784 310.242C899.634 328.728 899.422 350.931 893.923 375.792C888.426 400.64 877.684 427.977 863.671 456.616C836.114 512.936 796.065 573.981 758.905 630.624L756.992 633.54C747.189 648.484 738.509 662.493 730.288 675.762C698.896 726.427 674.194 766.297 619.15 806.243C564.825 845.666 498.095 845.739 435.553 844.073C432.566 843.994 429.588 843.91 426.622 843.827C398.637 843.043 371.649 842.286 347.45 845.12C320.656 848.257 296.992 855.821 278.964 872.849C250.952 899.308 230.854 927.068 219.237 957.736C207.616 988.416 204.529 1021.89 210.365 1059.69C215.974 1096.03 241.309 1134.03 269.171 1156C283.101 1166.98 297.891 1174.14 311.382 1174.89C318.16 1175.27 324.627 1174.02 330.447 1170.81C336.267 1167.6 341.327 1162.48 345.388 1155.29C348.086 1150.51 348.125 1143.69 347.014 1136.61C345.886 1129.42 343.494 1121.5 340.836 1114.18C338.174 1106.84 335.219 1100.04 332.933 1095.07C331.789 1092.59 330.81 1090.56 330.117 1089.16C329.77 1088.45 329.494 1087.9 329.305 1087.53C329.21 1087.34 329.137 1087.2 329.087 1087.1L329.029 1086.99L329.014 1086.96L329.01 1086.95L329.009 1086.95C329.009 1086.95 329.009 1086.95 327.233 1087.87L329.009 1086.95ZM1249.59 80.3702C1248.69 81.2669 1247.54 82.401 1246.16 83.7475C1242.38 87.4355 1236.86 92.7165 1229.89 99.0792C1215.95 111.806 1196.24 128.852 1173.16 146.129C1126.91 180.758 1067.53 216.023 1014.1 219.751C977.883 222.278 950.749 213.309 923.406 202.517C919.916 201.14 916.421 199.732 912.901 198.314C888.862 188.629 863.707 178.494 831.587 174.674C796.421 170.493 751.162 170.497 714.762 171.539C696.547 172.06 680.525 172.841 669.055 173.493C665.211 173.711 661.878 173.915 659.145 174.089C682.082 160.306 703.561 144.32 724.685 127.784C731.693 122.298 738.656 116.756 745.62 111.214C761.912 98.2488 778.209 85.2787 795.098 73.0068C843.247 38.0194 895.849 8.9812 965.171 3.05732C1022.85 -1.87151 1071.18 11.0726 1116.89 28.5736C1132.84 34.6798 1148.43 41.3233 1164 47.9588C1170.77 50.8466 1177.54 53.7329 1184.34 56.5727C1205.68 65.4886 1227.2 73.919 1249.59 80.3702Z" stroke="#5CBD93" stroke-width="4"/>
</svg>
