<svg width="1808" height="1080" viewBox="0 0 1808 1080" fill="none" xmlns="http://www.w3.org/2000/svg">
<path opacity="0.02" d="M78.0087 828.946L77.9215 828.778L77.8021 828.626L77.7882 828.608L77.7258 828.527C77.6693 828.453 77.5831 828.34 77.47 828.188C77.2436 827.884 76.9094 827.427 76.4879 826.825C75.6447 825.62 74.4533 823.839 73.0786 821.557C70.3272 816.988 66.8518 810.425 63.9607 802.46C58.1745 786.521 54.7772 765.118 64.0125 742.832C71.364 725.091 88.0052 711.143 110.172 700.643C132.311 690.156 159.718 683.226 188.169 679.387C216.607 675.55 245.999 674.812 272.061 676.656C298.16 678.503 320.767 682.929 335.712 689.327C342.948 692.426 348.489 699.912 352.378 711.562C356.256 723.176 358.368 738.57 359.006 756.864C360.281 793.432 355.656 841.102 347.957 892.162C332.562 994.251 304.939 1109.49 288.038 1175.68C279.719 1208.25 252.589 1231.51 219.64 1230.51C162.641 1228.78 70.1161 1216.82 -19.1292 1165.61C-108.313 1114.43 -194.353 1023.96 -238.378 864.924C-253.603 809.928 -251.352 745.934 -238.654 681.286C-225.959 616.657 -202.851 551.51 -176.499 494.284C-150.144 437.05 -120.581 387.818 -95.0213 355.006C-82.2278 338.582 -70.516 326.374 -60.7832 319.317C-55.91 315.783 -51.6561 313.632 -48.1057 312.817C-44.6095 312.016 -41.9394 312.531 -39.8957 314.14C-23.1842 327.293 -11.932 343.187 -0.575989 359.228C2.21851 363.176 5.01929 367.132 7.90927 371.058C22.4955 390.876 39.1821 409.617 68.462 421.211C112.069 438.478 161.436 422.682 197.311 399.007C215.283 387.147 230.041 373.204 239.147 360.187C243.697 353.682 246.895 347.325 248.33 341.507C249.766 335.687 249.473 330.226 246.762 325.768C241.954 317.861 236.701 312.636 230.995 309.61C225.266 306.571 219.246 305.837 213.08 306.63C200.926 308.194 187.924 315.763 174.824 323.531C174.391 323.787 173.958 324.045 173.524 324.302C160.658 331.936 147.571 339.702 134.358 343.102C120.863 346.575 107.341 345.465 93.8939 334.734C33.1628 286.27 40.0223 211.035 64.0713 135.204C81.871 79.0774 117.489 46.064 163.148 24.463C208.928 2.80527 264.715 -7.34361 322.781 -17.6714C385.818 -28.8835 458.849 -30.0591 519.566 -18.9897C549.924 -13.4549 577.112 -4.875 598.411 6.97449C619.715 18.8267 634.972 33.8587 641.784 52.2419C648.634 70.7281 648.422 92.9312 642.923 117.792C637.426 142.64 626.684 169.977 612.671 198.616C585.114 254.935 545.066 315.98 507.905 372.624L505.992 375.54C496.189 390.484 487.509 404.494 479.288 417.762C447.896 468.427 423.194 508.297 368.15 548.243C313.825 587.666 247.095 587.739 184.553 586.073C181.566 585.994 178.588 585.91 175.622 585.827C147.637 585.043 120.649 584.286 96.45 587.12C69.6556 590.257 45.9922 597.821 27.9644 614.849C-0.0479736 641.308 -20.1464 669.068 -31.763 699.736C-43.3844 730.416 -46.4711 763.888 -40.6353 801.694C-35.0258 838.034 -9.69089 876.031 18.1713 897.999C32.1008 908.981 46.8914 916.141 60.3824 916.889C67.1599 917.265 73.6271 916.022 79.4474 912.811C85.2673 909.6 90.3268 904.484 94.388 897.291C97.0862 892.512 97.125 885.691 96.014 878.608C94.8864 871.42 92.4941 863.497 89.8362 856.175C87.1735 848.84 84.2188 842.038 81.9325 837.074C80.7886 834.591 79.8102 832.564 79.1167 831.156C78.7699 830.451 78.4943 829.902 78.3047 829.527C78.2098 829.339 78.1365 829.195 78.0866 829.098L78.0294 828.986L78.0144 828.957L78.0104 828.95L78.0092 828.947C78.0089 828.947 78.0087 828.946 76.2325 829.866L78.0087 828.946ZM494.561 741.396C512.13 731.699 529.388 726.732 546.154 728.002C562.883 729.269 579.355 736.763 595.363 752.416C605.557 762.384 612.071 778.612 616.181 794.771C620.273 810.859 621.901 826.546 622.528 835.129C622.858 839.648 623.302 844.249 624.461 848.802C626.448 856.607 630.516 870.027 637.269 881.236C643.967 892.354 653.754 901.989 667.297 900.668C685.485 898.893 697.657 890.823 705.208 878.478C712.685 866.253 715.512 850.038 715.567 832.103C715.678 796.291 704.72 752.556 695.883 717.287L695.845 717.136L694.835 713.104C694.835 713.104 694.835 713.104 694.835 713.104C687.851 685.19 669.937 661.809 648.285 641.755C626.655 621.722 601.13 604.864 578.709 590.055L578.648 590.014C562.255 579.188 547.596 569.501 537.142 560.416C531.922 555.878 527.839 551.566 525.131 547.419C522.428 543.282 521.167 539.425 521.381 535.737C521.659 530.947 523.268 523.717 526.164 514.405C529.048 505.131 533.169 493.916 538.393 481.203C548.84 455.781 563.668 424.447 581.754 390.812C617.936 323.522 667.081 247.161 720.146 190.543C733.046 176.779 744.291 163.406 754.924 150.761L754.941 150.74C789.087 110.133 816.958 77.038 873.994 60.586C896.657 54.0487 922.116 60.2404 948.126 72.3894C974.105 84.5237 1000.26 102.419 1024.22 118.818L1024.26 118.843C1037.05 127.594 1049.22 135.924 1060.34 142.658C1071.45 149.385 1081.65 154.612 1090.49 157.061C1099.32 159.508 1107.23 159.292 1113.24 154.476C1119.18 149.729 1122.71 140.94 1123.97 127.668C1126.51 100.917 1125.38 73.6539 1116.69 51.0153C1107.96 28.2771 1091.6 10.2392 1063.92 2.16724C1036.77 -5.74947 1018.51 -8.35272 1000.34 -10.9429L1000.34 -10.944C982.213 -13.5279 964.179 -16.0994 937.307 -23.9353C934.13 -24.8616 931.99 -26.0831 930.641 -27.447C929.33 -28.7711 928.68 -30.3113 928.598 -32.1259C928.426 -35.9509 930.782 -41.1895 935.904 -47.6688C946.038 -60.4875 965.734 -76.6144 990.513 -93.3093C1040.01 -126.66 1109.02 -161.767 1160.06 -176.708C1233.7 -198.265 1296.84 -207.811 1359.33 -204.849C1421.82 -201.888 1483.77 -186.413 1555.01 -157.789C1732.01 -86.675 1867.35 3.23578 1912.56 189.646C1931.71 268.602 1934.95 319.55 1912.58 397.439C1902.77 431.57 1876.54 454.323 1851.29 476.155L1851.15 476.277C1835.18 490.086 1819.56 503.59 1809.38 519.315C1799.08 535.217 1794.32 553.402 1800.01 576.44C1804.23 593.485 1809.02 607.535 1816.35 619.946C1823.69 632.38 1833.51 643.076 1847.66 653.504C1857.09 660.451 1865.4 662.623 1872.79 660.382C1880.08 658.171 1885.84 651.84 1890.65 643.274C1900.21 626.21 1906.82 598.648 1913.64 570.228L1913.71 569.938C1920.88 540.072 1928.31 509.165 1939.56 487.264C1945.17 476.327 1951.64 467.848 1959.31 462.846C1966.89 457.903 1975.81 456.251 1986.66 459.243C2004.71 464.22 2018.21 478.325 2028.28 497.5C2038.34 516.67 2044.85 540.668 2049 564.93C2057.3 613.442 2056.13 662.517 2055.66 674.922C2055.58 677.019 2055.55 678.932 2055.56 681.033C2055.61 694.701 2055.14 753.158 2044.36 820.607C2033.57 888.138 2012.5 964.301 1971.58 1013.67C1965.64 1020.85 1959.73 1028.13 1953.83 1035.41L1953.81 1035.43C1926.28 1069.39 1899.02 1103 1868.57 1124.56C1838.25 1146.03 1804.94 1155.44 1765.11 1141.2C1741.64 1132.82 1730.42 1108.43 1725.57 1076.99C1720.72 1045.66 1722.34 1008.19 1723.78 974.854L1723.78 974.822C1724.42 959.973 1725.02 945.941 1724.99 933.721C1724.96 921.523 1724.3 910.963 1722.33 903.119C1720.4 895.401 1717 889.499 1710.84 888.092C1707.83 887.405 1704.46 887.882 1700.75 889.377C1697.04 890.872 1692.87 893.434 1688.18 897.101C1662.06 917.495 1653.6 938.435 1642.08 966.952L1642.03 967.076C1640.84 970.04 1639.6 973.085 1638.32 976.224C1623.51 1012.31 1632.74 1046.01 1641.54 1078.15L1641.6 1078.38C1651.36 1114.01 1660.49 1147.66 1638.48 1182.36C1601.53 1240.6 1552.4 1253.03 1484.95 1269.28C1476.01 1271.43 1467.07 1273.75 1458.2 1276.05C1425.67 1284.49 1394.12 1292.66 1365.65 1292.07C1337.34 1291.48 1312.23 1282.22 1292.4 1255.79C1274.45 1231.86 1283 1205.71 1292.17 1178.1L1292.3 1177.71C1301.17 1151.01 1310.48 1122.95 1292.45 1096.86C1281.84 1081.53 1271.46 1069.05 1259.06 1059.73C1246.62 1050.37 1232.24 1044.24 1213.72 1041.45C1202.46 1039.75 1194.18 1041.02 1188.5 1045.21C1182.78 1049.43 1180.17 1056.23 1179.44 1064.44C1178.7 1072.66 1179.81 1082.61 1181.83 1093.6C1183.86 1104.6 1186.86 1116.79 1189.98 1129.51L1189.99 1129.56C1195.33 1151.32 1201.05 1174.68 1203.22 1196.81C1205.39 1218.97 1203.96 1239.61 1195.25 1256.05C1181.12 1282.69 1163.87 1301.2 1144.15 1313.65C1124.42 1326.1 1102.11 1332.55 1077.78 1334.92C1029.02 1339.66 972.469 1328 912.86 1315.69L907.72 1314.63C865.767 1305.98 835.481 1267.1 839.3 1224.02C863.17 954.705 910.969 782.437 964.682 664.967C1018.38 547.538 1078.02 484.766 1125.85 434.431L1125.89 434.394C1142.35 417.071 1157.47 401.161 1170.44 385.006C1215.54 328.828 1302.61 311.613 1374.47 317.23C1410.35 320.034 1442.12 328.516 1462.65 340.435C1472.92 346.399 1480.2 353.119 1483.89 360.243C1487.51 367.258 1487.74 374.807 1483.63 382.843C1480.71 388.57 1477.18 394.835 1473.37 401.609C1472.09 403.891 1470.77 406.231 1469.43 408.627C1464.14 418.108 1458.56 428.42 1453.53 439.347C1443.47 461.183 1435.53 485.617 1436.49 511.022C1437.35 533.806 1441.83 553.476 1445.68 570.359C1447.07 576.45 1448.37 582.178 1449.4 587.559C1451.34 597.784 1452.27 606.719 1451.01 614.713C1449.77 622.628 1446.38 629.699 1439.49 636.202C1432.34 642.964 1423.28 645.66 1412.96 646.061C1402.59 646.463 1391.13 644.543 1379.34 642.229C1377.29 641.828 1375.24 641.415 1373.18 641C1363.45 639.043 1353.62 637.066 1344.35 636.25C1333.11 635.262 1322.38 635.943 1313.33 640.625C1307.31 643.744 1299.33 650.617 1290.39 658.393L1289.12 659.493C1280.4 667.085 1270.65 675.57 1260.46 682.846C1249.77 690.488 1238.75 696.674 1228.11 699.112C1217.56 701.528 1207.45 700.257 1198.25 693.033C1190.05 686.588 1184.72 675.256 1181.31 663.164C1174.26 638.136 1187.9 612.851 1209.29 597.325C1226.08 585.137 1244.3 572.135 1252.56 567.001L1252.7 566.91C1270.5 555.839 1290.73 543.262 1304.3 528.184C1311.13 520.599 1316.37 512.285 1318.75 503.102C1321.13 493.882 1320.6 483.922 1316.1 473.153C1312.52 464.588 1305.04 460.253 1295.31 459.322C1285.68 458.401 1273.66 460.767 1260.35 465.652C1233.69 475.438 1201.13 495.597 1170.65 521.595C1140.17 547.6 1111.62 579.562 1093.06 613.054C1074.52 646.522 1065.82 681.771 1075.52 714.163C1085.52 747.593 1100.91 766.496 1120.3 775.939C1139.59 785.337 1162.45 785.163 1186.95 781.346C1202.27 778.959 1218.48 775.098 1235.02 771.159C1244.85 768.816 1254.8 766.446 1264.74 764.343C1291.56 758.671 1318.62 754.863 1344.47 758.284C1383.4 763.437 1452.01 768.443 1488.65 770.921C1505.17 772.038 1522.31 768.543 1534.55 756.612C1544.29 747.121 1555.11 733.34 1560.36 715.579C1565.63 697.759 1565.26 676.093 1552.86 651.008C1515.79 575.964 1534.21 498.502 1590.11 432.505C1604.75 415.222 1606.89 392.212 1600.04 367.789C1593.19 343.378 1577.31 317.305 1555.48 293.42C1511.84 245.678 1443.93 206.158 1375.21 206.158C1307.09 206.158 1249.83 210.91 1183.15 247.935C1116.57 284.902 1040.76 353.955 935.203 482.145C866.787 565.231 818.798 684.813 785.725 809.875C752.641 934.976 734.432 1065.76 725.684 1171.4C719.982 1240.26 660.332 1293.36 592.687 1285.71L532.471 1278.91C498.082 1275.03 468.79 1263.11 448.402 1243.6C428.057 1224.13 416.422 1196.95 417.548 1162.16C421.435 1042.05 443.87 860.961 448.676 830.17C452.202 807.575 455.261 790.062 461.659 775.814C467.999 761.696 477.651 750.73 494.561 741.396ZM998.592 -177.63C997.692 -176.733 996.544 -175.599 995.164 -174.253C991.383 -170.565 985.857 -165.283 978.887 -158.921C964.945 -146.194 945.235 -129.148 922.161 -111.871C875.913 -77.242 816.527 -41.9768 763.101 -38.2493C726.883 -35.7224 699.749 -44.6912 672.406 -55.4828C668.916 -56.8602 665.421 -58.2684 661.902 -59.6863C637.862 -69.3714 612.707 -79.5061 580.587 -83.3255C545.421 -87.5072 500.162 -87.5027 463.762 -86.4613C445.547 -85.9402 429.525 -85.1586 418.055 -84.5073C414.211 -84.289 410.878 -84.0853 408.145 -83.9109C431.082 -97.6935 452.561 -113.68 473.685 -130.216C480.693 -135.702 487.656 -141.244 494.621 -146.787C510.912 -159.751 527.209 -172.721 544.098 -184.993C592.247 -219.981 644.849 -249.019 714.171 -254.943C771.848 -259.872 820.178 -246.927 865.89 -229.426C881.839 -223.32 897.427 -216.677 912.996 -210.041C919.772 -207.153 926.545 -204.267 933.342 -201.427C954.682 -192.511 976.203 -184.081 998.592 -177.63Z" stroke="#5CBD93" stroke-width="4"/>
</svg>
