<svg width="23" height="23" viewBox="0 0 23 23" fill="none" xmlns="http://www.w3.org/2000/svg">
<path d="M15.3108 12.1844V16.77C15.3108 17.1756 15.2658 17.5586 15.1644 17.9079C14.7475 19.5641 13.373 20.6006 11.4803 20.6006H8.41589L5.01348 22.8652C4.5065 23.2145 3.83053 22.8427 3.83053 22.2343V20.6006C2.68137 20.6006 1.72374 20.2176 1.05903 19.5528C0.383053 18.8768 0 17.9192 0 16.77V12.1844C0 10.0438 1.32942 8.56785 3.37988 8.37632C3.52634 8.36505 3.6728 8.35379 3.83053 8.35379H11.4803C13.7786 8.35379 15.3108 9.88605 15.3108 12.1844Z" fill="#747474"/>
<path d="M18.1418 15.5469C19.5935 15.5469 20.8166 15.0668 21.6626 14.2094C22.5199 13.3635 23 12.1403 23 10.6885V4.85841C23 2.172 20.8281 0 18.1418 0H8.42527C5.73894 0 3.56702 2.172 3.56702 4.85841V5.71578C3.56702 6.03586 3.81851 6.28736 4.13858 6.28736H11.786C14.8839 6.28736 17.3873 8.79087 17.3873 11.8888V14.9753C17.3873 15.2954 17.6388 15.5469 17.9589 15.5469H18.1418Z" fill="#747474"/>
</svg>
