<svg width="6" height="21" viewBox="0 0 6 21" fill="none" xmlns="http://www.w3.org/2000/svg">
<path d="M3.26181 13.901C2.39336 13.901 1.67655 13.2218 1.62976 12.3546L1.07692 2.10775C1.01513 0.962508 1.9271 0 3.07401 0H3.47264C4.62132 0 5.53394 0.965356 5.46949 2.11223L4.89365 12.3583C4.845 13.224 4.12884 13.901 3.26181 13.901ZM3.2757 21C2.54653 21 1.94236 20.7723 1.4632 20.3168C0.984029 19.8614 0.744446 19.3168 0.744446 18.6832C0.744446 18.0495 0.984029 17.5149 1.4632 17.0792C1.94236 16.6238 2.54653 16.396 3.2757 16.396C4.00486 16.396 4.59861 16.6238 5.05695 17.0792C5.51528 17.5149 5.74445 18.0495 5.74445 18.6832C5.74445 19.3168 5.51528 19.8614 5.05695 20.3168C4.59861 20.7723 4.00486 21 3.2757 21Z" fill="#747474"/>
</svg>
