<svg width="23" height="26" viewBox="0 0 23 26" fill="none" xmlns="http://www.w3.org/2000/svg">
<path fill-rule="evenodd" clip-rule="evenodd" d="M3.76779 0.5C3.23892 0.5 2.71891 0.634805 2.25681 0.891515C1.78628 1.13138 1.38911 1.49394 1.10744 1.94104C0.821705 2.39457 0.665752 2.91775 0.656516 3.4537L0.656382 22.5309L0.656516 22.5463C0.665752 23.0822 0.821705 23.6054 1.10744 24.0589C1.38911 24.5061 1.78628 24.8686 2.25681 25.1086C2.71891 25.3652 3.23892 25.5 3.76779 25.5C4.30415 25.5 4.83141 25.3614 5.29839 25.0975C5.30867 25.0918 5.31883 25.0857 5.32886 25.0794L20.7603 15.5352C21.2282 15.2994 21.6232 14.9401 21.9026 14.4957C22.1906 14.0369 22.3437 13.5061 22.3437 12.9642C22.3437 12.4224 22.1906 11.8916 21.9026 11.4327C21.6231 10.988 21.2274 10.6284 20.7589 10.3925L5.32632 0.918966C5.31711 0.913316 5.30779 0.907832 5.29839 0.902517C4.83141 0.638658 4.30415 0.5 3.76779 0.5Z" fill="#8FEB96"/>
</svg>
