<svg width="17" height="19" viewBox="0 0 17 19" fill="none" xmlns="http://www.w3.org/2000/svg">
<path filal-rule="evenodd" clip-rule="evenodd" d="M16.9997 9.5C16.9997 13.4517 14.696 15.7398 14.2607 16.1174C15.9448 14.4729 16.9997 12.1168 16.9997 9.5Z" fill="#747474"/>
<path d="M16.8344 7.73735H16.1497V7.7H8.49973V11.3H13.3035L13.2893 11.3419C12.95 12.3303 12.347 13.1848 11.57 13.8085C10.7503 14.4665 9.73693 14.8676 8.63529 14.8981C8.59025 14.8994 8.54506 14.9 8.49973 14.9C8.43371 14.9 8.368 14.8987 8.30259 14.896C5.57746 14.7864 3.39973 12.4123 3.39973 9.5C3.39973 8.78478 3.53107 8.10202 3.76962 7.47729C4.44361 5.71216 5.97338 4.4103 7.8142 4.1484C7.83046 4.14608 7.84674 4.14385 7.86305 4.1417C7.9184 4.13439 7.97403 4.12803 8.02993 4.12262L8.07573 4.11841C8.21553 4.10621 8.35693 4.1 8.49973 4.1C9.7998 4.1 10.9826 4.6193 11.8832 5.46755L14.2874 2.9219C12.7693 1.42385 10.7386 0.5 8.49973 0.5C3.8056 0.5 -0.000274658 4.52975 -0.000274658 9.5C-0.000274658 14.3596 3.638 18.3201 8.18752 18.494C8.29112 18.498 8.3952 18.5 8.49973 18.5C10.6953 18.5 12.6902 17.6103 14.1985 16.1636C14.1758 16.1854 14.2003 16.1698 14.2607 16.1174C15.9448 14.4729 16.9997 12.1168 16.9997 9.5C16.9997 8.89655 16.9411 8.3075 16.8344 7.73735Z" fill="#747474"/>
</svg>