<svg width="19" height="21" viewBox="0 0 19 21" fill="none" xmlns="http://www.w3.org/2000/svg">
<path fill-rule="evenodd" clip-rule="evenodd" d="M15.5862 10.5L16.5979 10.5C17.6626 10.5 18.5265 11.3398 18.5265 12.375V18.625C18.5265 19.6601 17.6626 20.5 16.5979 20.5H2.45506C1.39033 20.5 0.526489 19.6601 0.526489 18.625V12.375C0.526489 11.3398 1.39033 10.5 2.45506 10.5H3.41935V6.4961C3.41935 3.21721 6.12752 0.515607 9.49915 0.500045C9.50036 0.500049 9.50157 0.500024 9.50277 0.500029C9.50398 0.500024 9.50519 0.500019 9.5064 0.500015C12.878 0.515578 15.5862 3.2172 15.5862 6.4961V10.5ZM12.3719 10.5V6.47266C12.3719 4.92876 11.0756 3.64557 9.48877 3.62512C7.90218 3.6458 6.63363 4.9289 6.63363 6.47266V10.5L12.3719 10.5Z" fill="#747474"/>
</svg>
