<svg width="51" height="34" viewBox="0 0 51 34" fill="none" xmlns="http://www.w3.org/2000/svg">
<path d="M18.7249 21.4947C18.0055 20.8162 17.2321 20.8347 16.4462 21.2531C15.6834 21.6592 15.5658 22.2145 15.4104 23.175C15.3041 23.832 14.8083 27.6916 14.7224 30.2527C14.6719 31.7572 15.7673 32.6166 17.2999 32.7836L18.63 32.9285C20.1511 33.0942 21.4887 31.9431 21.6165 30.4543C22.0027 25.9567 23.224 19.3206 26.2343 15.7946C30.8954 10.3351 32.9152 9.93068 35.919 9.93068C38.9228 9.93068 41.8748 13.267 40.6318 14.6825C39.3889 16.0979 38.9746 17.7661 39.8032 19.3837C40.3411 20.4339 39.8314 21.1857 39.4076 21.584C39.1493 21.8267 38.7852 21.9002 38.4275 21.8769C37.6179 21.8241 36.104 21.7175 35.2458 21.6079C32.9312 21.3125 30.2166 23.5172 29.3418 20.698C28.5043 17.9993 34.0028 14.278 34.5725 15.5924C34.9562 16.4776 33.9773 17.0647 33.1864 17.539C33.0024 17.6494 32.5984 17.9274 32.2281 18.1867C31.7466 18.5239 31.4311 19.0791 31.5936 19.6353C31.6696 19.8954 31.7906 20.1478 31.983 20.2936C32.8449 20.9468 34.0636 19.4356 34.5725 19.1815C35.3278 18.8044 36.6959 19.694 37.3691 19.0804C38.0062 18.4997 37.3677 17.6936 37.3165 16.3811C37.2751 15.3179 38.0054 14.3275 38.353 13.6714C39.1299 12.2055 33.3813 11.245 31.3615 13.6714C31.0762 14.0142 30.7434 14.352 30.3792 14.7217C28.2644 16.8682 25.093 20.0872 24.038 31.568C23.9516 32.5083 24.6366 33.3553 25.5843 33.5439L25.6978 33.5665C28.327 34.0902 30.7227 34.5675 31.983 32.2742C32.38 31.5517 32.1062 30.4754 31.8707 29.5493C31.5943 28.4625 31.3705 27.5826 32.3455 27.7246C33.1501 27.8418 33.588 28.2367 34.0545 28.8873C34.4404 29.4254 34.241 30.0044 34.0428 30.5801C33.8418 31.1637 33.6421 31.7438 34.0545 32.2742C34.9497 33.4254 36.3294 33.0802 37.763 32.7216C37.9591 32.6725 38.1561 32.6232 38.353 32.5775C39.8418 32.2316 40.9444 31.9641 41.7711 30.7071C42.269 29.9501 42.0603 29.2147 41.8455 28.458C41.6502 27.7701 41.4499 27.0646 41.7711 26.3092C41.7996 26.2422 41.8268 26.1772 41.8533 26.1141C42.1083 25.5053 42.2912 25.0684 42.8587 24.641C43.6738 24.027 43.6305 24.9945 43.5737 26.262C43.5102 27.68 43.4298 29.4734 44.516 29.8477C46.3087 30.4656 47.519 29.0257 48.7331 27.5811C48.8635 27.4259 48.994 27.2707 49.1252 27.118C50.9486 24.9958 50.9926 20.5889 50.9902 20.0043C50.99 19.9602 50.9908 19.92 50.9925 19.8759C51.0134 19.3456 51.0965 15.68 49.4359 15.2385C48.431 14.9713 48.0859 16.3588 47.7701 17.6278C47.4665 18.8483 47.1901 19.9592 46.3804 19.3837C45.7634 18.9452 45.5299 18.4887 45.3446 17.7661C45.0994 16.8096 45.7531 16.2644 46.4632 15.6721C47.0192 15.2085 47.6097 14.716 47.8305 13.9748C48.3273 12.3066 48.2547 11.2135 47.8305 9.52628C46.8269 5.53465 43.8204 3.61185 39.9067 2.09529C36.7531 0.873244 34.4137 0.770617 31.1543 1.6909C28.8886 2.33061 25.0411 4.69164 26.2343 5.02724C26.831 5.19505 27.2318 5.25016 27.6327 5.30528C28.0335 5.36039 28.4343 5.41551 29.031 5.58331C30.2242 5.91892 30.4371 7.07813 30.3257 8.21196C30.216 9.32866 29.3235 8.7395 28.1914 7.99229C27.1343 7.29447 25.8682 6.45881 24.836 6.74598C23.5621 7.1004 22.939 7.81516 22.1849 8.68008C21.9499 8.94967 21.7021 9.23388 21.4179 9.52628C19.0665 11.946 17.0676 16.0473 17.0159 16.9067C16.9941 17.2688 17.5781 17.6408 18.3005 18.101C19.2926 18.733 20.5456 19.5312 20.8483 20.698L20.8706 20.7839C21.262 22.2908 21.8345 24.4945 20.2786 24.641C19.7339 24.6923 19.4666 23.898 19.3795 23.568C19.355 23.4749 19.3454 23.38 19.3381 23.2841C19.3102 22.9159 19.1932 21.9363 18.7249 21.4947Z" fill="#5CBD93"/>
<path d="M11.9488 30.5525C11.7607 31.2629 11.1453 31.7748 10.3939 31.7527C7.86783 31.6785 2.18734 30.7313 0.236205 23.9333C-1.11888 19.212 3.75786 11.4473 4.69008 12.155C5.6223 12.8626 5.80149 13.9444 7.07238 14.4298C8.96007 15.1507 11.3709 13.1155 10.9566 12.4583C10.1298 11.1469 8.82904 13.6139 7.59028 12.6605C6.22466 11.6094 6.38556 9.97996 6.91702 8.36364C7.71205 5.94577 10.1033 5.51739 12.6656 5.07783C15.4593 4.59859 19.1393 4.97677 19.7608 6.59436C20.3822 8.21195 18.4212 11.073 16.757 13.5198C15.7171 15.0487 15.2441 16.1303 13.7014 17.2101C11.2742 18.909 7.74564 17.2101 6.19196 18.6255C4.96156 19.7464 4.4343 20.9702 4.69008 22.5684C4.93389 24.0918 6.89977 25.7701 7.59028 24.5905C7.79743 24.2367 7.22774 23.1751 7.22774 23.1751C7.22774 23.1751 6.49778 22.2805 6.91702 21.3047C7.59028 19.7376 11.6298 19.586 12.9764 20.142C14.391 20.7262 12.6956 27.7318 11.9488 30.5525Z" fill="#5CBD93"/>
<path d="M14.3747 3.76344C14.3747 3.76344 16.8158 3.58605 18.3624 3.76344C19.975 3.94839 20.7822 4.83291 22.402 4.72391C24.7897 4.56324 27.6845 1.69086 27.6845 1.69086C25.6129 1.1348 23.8809 -0.188856 21.3144 0.0226791C18.2295 0.276946 16.6361 2.51652 14.3747 3.76344Z" fill="#5CBD93"/>
</svg>
