<svg width="22" height="22" viewBox="0 0 22 22" fill="none" xmlns="http://www.w3.org/2000/svg">
<path d="M17.3991 0C19.7366 0 21.6315 1.89488 21.6315 4.23231C21.6315 6.56975 19.7366 8.46462 17.3991 8.46462C15.0617 8.46462 13.1668 6.56975 13.1668 4.23231C13.1668 1.89488 15.0617 0 17.3991 0Z" fill="#747474"/>
<path d="M17.3991 13.1672C19.7366 13.1672 21.6315 15.0621 21.6315 17.3995C21.6315 19.737 19.7366 21.6319 17.3991 21.6319C15.0617 21.6319 13.1668 19.737 13.1668 17.3995C13.1668 15.0621 15.0617 13.1672 17.3991 13.1672Z" fill="#747474"/>
<path d="M4.23231 13.1672C6.56975 13.1672 8.46462 15.0621 8.46462 17.3995C8.46462 19.737 6.56975 21.6319 4.23231 21.6319C1.89488 21.6319 0 19.737 0 17.3995C0 15.0621 1.89488 13.1672 4.23231 13.1672Z" fill="#747474"/>
<path d="M4.23231 0C6.56975 0 8.46462 1.89488 8.46462 4.23231C8.46462 6.56975 6.56975 8.46462 4.23231 8.46462C1.89488 8.46462 0 6.56975 0 4.23231C0 1.89488 1.89488 0 4.23231 0Z" fill="#747474"/>
</svg>
