<svg width="23" height="23" viewBox="0 0 23 23" fill="none" xmlns="http://www.w3.org/2000/svg">
<path d="M6.4975 21.7465C6.463 21.7465 6.417 21.7695 6.3825 21.7695C4.1515 20.6655 2.3345 18.837 1.219 16.606C1.219 16.5715 1.242 16.5255 1.242 16.491C2.645 16.905 4.094 17.2155 5.5315 17.457C5.7845 18.906 6.0835 20.3435 6.4975 21.7465Z" fill="#747474"/>
<path d="M21.781 16.6175C20.6425 18.906 18.745 20.7575 16.4335 21.873C16.8705 20.4125 17.2385 18.9405 17.48 17.457C18.929 17.2155 20.355 16.905 21.758 16.491C21.7465 16.537 21.781 16.583 21.781 16.6175Z" fill="#747474"/>
<path d="M21.873 6.5665C20.424 6.1295 18.9635 5.773 17.48 5.52C17.2385 4.0365 16.882 2.5645 16.4335 1.127C18.814 2.2655 20.7345 4.186 21.873 6.5665Z" fill="#747474"/>
<path d="M6.4975 1.2535C6.0835 2.6565 5.7845 4.0825 5.543 5.5315C4.0595 5.7615 2.5875 6.1295 1.127 6.5665C2.2425 4.255 4.094 2.3575 6.3825 1.219C6.417 1.219 6.463 1.2535 6.4975 1.2535Z" fill="#747474"/>
<path d="M15.5135 5.2785C12.8455 4.9795 10.1545 4.9795 7.4865 5.2785C7.774 3.703 8.142 2.1275 8.6595 0.6095C8.6825 0.5175 8.671 0.4485 8.6825 0.3565C9.591 0.138 10.5225 0 11.5 0C12.466 0 13.409 0.138 14.306 0.3565C14.3175 0.4485 14.3175 0.5175 14.3405 0.6095C14.858 2.139 15.226 3.703 15.5135 5.2785Z" fill="#747474"/>
<path d="M5.2785 15.5135C3.6915 15.226 2.1275 14.858 0.6095 14.3405C0.5175 14.3175 0.4485 14.329 0.3565 14.3175C0.138 13.409 0 12.4775 0 11.5C0 10.534 0.138 9.591 0.3565 8.694C0.4485 8.6825 0.5175 8.6825 0.6095 8.6595C2.139 8.1535 3.6915 7.774 5.2785 7.4865C4.991 10.1545 4.991 12.8455 5.2785 15.5135Z" fill="#747474"/>
<path d="M23 11.5C23 12.4775 22.862 13.409 22.6435 14.3175C22.5515 14.329 22.4825 14.3175 22.3905 14.3405C20.861 14.8465 19.297 15.226 17.7215 15.5135C18.0205 12.8455 18.0205 10.1545 17.7215 7.4865C19.297 7.774 20.8725 8.142 22.3905 8.6595C22.4825 8.6825 22.5515 8.694 22.6435 8.694C22.862 9.6025 23 10.534 23 11.5Z" fill="#747474"/>
<path d="M15.5135 17.7215C15.226 19.3085 14.858 20.8725 14.3405 22.3905C14.3175 22.4825 14.3175 22.5515 14.306 22.6435C13.409 22.862 12.466 23 11.5 23C10.5225 23 9.591 22.862 8.6825 22.6435C8.671 22.5515 8.6825 22.4825 8.6595 22.3905C8.1535 20.861 7.774 19.3085 7.4865 17.7215C8.8205 17.871 10.1545 17.9745 11.5 17.9745C12.8455 17.9745 14.191 17.871 15.5135 17.7215Z" fill="#747474"/>
<path d="M15.8278 15.8278C12.9516 16.1907 10.0484 16.1907 7.17217 15.8278C6.80928 12.9516 6.80928 10.0484 7.17217 7.17217C10.0484 6.80928 12.9516 6.80928 15.8278 7.17217C16.1907 10.0484 16.1907 12.9516 15.8278 15.8278Z" fill="#747474"/>
</svg>
