<svg width="25" height="24" viewBox="0 0 25 24" fill="none" xmlns="http://www.w3.org/2000/svg">
<path fill-rule="evenodd" clip-rule="evenodd" d="M17.2215 10.3817L3.8175 1.12614C3.13924 0.696628 2.31256 0.81112 1.71509 1.2602C1.25464 1.6063 0.930338 2.15114 0.915052 2.79885V21.1428C0.915044 21.1452 0.915039 21.1478 0.915039 21.1502C0.915041 22.6656 2.59323 23.6465 3.8175 22.8712L17.2215 13.6714C18.3366 12.9191 18.3366 11.134 17.2215 10.3817ZM24.4863 2.9866C24.4863 2.03981 23.7188 1.2723 22.772 1.2723C21.8254 1.2723 21.0577 2.03981 21.0577 2.9866V21.0134C21.0577 21.9602 21.8254 22.7277 22.772 22.7277C23.7188 22.7277 24.4863 21.9602 24.4863 21.0134V2.9866Z" fill="#8FEB96"/>
</svg>
