<svg width="22" height="26" viewBox="0 0 22 26" fill="none" xmlns="http://www.w3.org/2000/svg">
<path fill-rule="evenodd" clip-rule="evenodd" d="M8.4041 3.39304C8.4041 2.3839 6.36007 0.5 4.44521 0.5C2.53035 0.5 0.486328 2.3839 0.486328 3.39304C0.486328 4.40217 0.486328 22.607 0.486328 22.607C0.486328 23.6161 2.53035 25.5 4.44521 25.5C6.36007 25.5 8.4041 23.6161 8.4041 22.607V3.39304Z" fill="#8FEB96"/>
<path fill-rule="evenodd" clip-rule="evenodd" d="M21.6511 3.39304C21.6511 2.3839 19.6071 0.5 17.6922 0.5C15.7774 0.5 13.7334 2.3839 13.7334 3.39304C13.7334 4.40217 13.7334 22.607 13.7334 22.607C13.7334 23.6161 15.7774 25.5 17.6922 25.5C19.6071 25.5 21.6511 23.6161 21.6511 22.607V3.39304Z" fill="#8FEB96"/>
</svg>
