<svg width="25" height="24" viewBox="0 0 25 24" fill="none" xmlns="http://www.w3.org/2000/svg">
<path fill-rule="evenodd" clip-rule="evenodd" d="M7.92129 13.6182L21.3253 22.8739C22.0036 23.3034 22.8303 23.1889 23.4277 22.7398C23.8882 22.3937 24.2125 21.8489 24.2278 21.2012L24.2278 2.85717C24.2278 2.85477 24.2278 2.85219 24.2278 2.84979C24.2278 1.33437 22.5496 0.353451 21.3253 1.12882L7.92129 10.3286C6.80618 11.0809 6.80618 12.866 7.92129 13.6182ZM0.656527 21.0134C0.656527 21.9602 1.42401 22.7277 2.37081 22.7277C3.31744 22.7277 4.0851 21.9602 4.0851 21.0134L4.0851 2.98659C4.0851 2.03979 3.31744 1.27231 2.37081 1.27231C1.42401 1.27231 0.656528 2.03979 0.656528 2.98659L0.656527 21.0134Z" fill="#8FEB96"/>
</svg>
