<svg width="22" height="22" viewBox="0 0 22 22" fill="none" xmlns="http://www.w3.org/2000/svg">
<path fill-rule="evenodd" clip-rule="evenodd" d="M9.60925 1.83814C9.60925 0.997445 10.2908 0.315926 11.1315 0.315926C16.9305 0.315926 21.6315 5.01693 21.6315 10.8159C21.6315 16.6148 16.9305 21.3159 11.1315 21.3159C5.33248 21.3159 0.63147 16.6148 0.63147 10.8159C0.63147 8.60274 1.317 6.54916 2.48554 4.85665H2.15369C1.31299 4.85665 0.63147 4.17513 0.63147 3.33444C0.63147 2.49374 1.31299 1.81222 2.15369 1.81222H6.14381C6.98451 1.81222 7.66603 2.49374 7.66603 3.33444V7.32456C7.66603 8.16526 6.98451 8.84678 6.14381 8.84678C5.30311 8.84678 4.62159 8.16526 4.62159 7.32456V7.17836C4.01885 8.25459 3.67591 9.49503 3.67591 10.8159C3.67591 14.9335 7.01389 18.2715 11.1315 18.2715C15.2491 18.2715 18.587 14.9335 18.587 10.8159C18.587 6.69831 15.2491 3.36036 11.1315 3.36036C10.2908 3.36036 9.60925 2.67884 9.60925 1.83814Z" fill="#747474"/>
</svg>
