<svg width="19" height="21" viewBox="0 0 19 21" fill="none" xmlns="http://www.w3.org/2000/svg">
<path d="M19 6.37824V16.2911C19 18.8826 16.8077 21 14.1246 21H4.87543C2.19231 21 0 18.8826 0 16.2911V6.37824C0 4.57686 1.04707 3.00723 2.58496 2.21715C3.1194 1.94326 3.78473 2.31196 3.78473 2.90189C3.78473 4.57686 5.20264 5.94633 6.93685 5.94633H12.0631C13.7974 5.94633 15.2153 4.57686 15.2153 2.90189C15.2153 2.31196 15.8697 1.94326 16.415 2.21715C17.9529 3.00723 19 4.57686 19 6.37824Z" fill="#747474"/>
<path d="M11.7 0H7.29972C6.32603 0 5.53023 0.759574 5.53023 1.7V2.55C5.53023 3.49042 6.31667 4.25 7.29036 4.25H11.7C12.6737 4.25 13.4602 3.49042 13.4602 2.55V1.7C13.4695 0.759574 12.6737 0 11.7 0Z" fill="#747474"/>
</svg>
