<svg width="23" height="23" viewBox="0 0 23 23" fill="none" xmlns="http://www.w3.org/2000/svg">
<path d="M0.680565 13.467L2.87302 14.0151C3.05747 14.6488 3.30975 15.2537 3.62168 15.8212L2.45866 17.7596C2.24654 18.1131 2.30224 18.5656 2.59378 18.8571L4.14291 20.4063C4.43441 20.6978 4.88695 20.7535 5.24044 20.5414L7.17886 19.3783C7.74636 19.6903 8.35118 19.9426 8.98494 20.127L9.53303 22.3194C9.63303 22.7194 9.99236 23 10.4046 23H12.5954C13.0077 23 13.3671 22.7194 13.4671 22.3195L14.0151 20.1271C14.6489 19.9426 15.2537 19.6903 15.8212 19.3784L17.7596 20.5414C18.1132 20.7535 18.5657 20.6978 18.8572 20.4063L20.4063 18.8572C20.6978 18.5657 20.7535 18.1132 20.5414 17.7596L19.3784 15.8212C19.6903 15.2537 19.9426 14.6489 20.1271 14.0151L22.3195 13.467C22.7194 13.367 23 13.0076 23 12.5954V10.4046C23 9.99235 22.7194 9.63298 22.3195 9.53298L20.127 8.98489C19.9426 8.35113 19.6903 7.7463 19.3784 7.1788L20.5414 5.24037C20.7535 4.88688 20.6978 4.43434 20.4063 4.14284L18.8571 2.5937C18.5656 2.30216 18.1131 2.2465 17.7596 2.45858L15.8212 3.62161C15.2537 3.30967 14.6489 3.05739 14.0151 2.87294L13.467 0.680521C13.367 0.28058 13.0077 3.34694e-10 12.5954 3.34694e-10H10.4046C9.99236 3.34694e-10 9.63298 0.28058 9.53299 0.680521L8.9849 2.87294C8.35114 3.05739 7.74631 3.30967 7.17882 3.62161L5.2404 2.45858C4.88686 2.24646 4.43436 2.30216 4.14287 2.5937L2.59374 4.14284C2.30224 4.43434 2.24654 4.88683 2.45861 5.24037L3.62164 7.1788C3.3097 7.7463 3.05742 8.35113 2.87297 8.98489L0.680521 9.53298C0.280582 9.63298 4.76837e-07 9.99235 4.76837e-07 10.4046V12.5954C4.53986e-05 13.0076 0.280626 13.367 0.680565 13.467ZM11.5 7.90622C13.4816 7.90622 15.0938 9.51838 15.0938 11.5C15.0938 13.4816 13.4816 15.0937 11.5 15.0937C9.51843 15.0937 7.90628 13.4816 7.90628 11.5C7.90628 9.51838 9.51843 7.90622 11.5 7.90622Z" fill="#747474"/>
</svg>
