<svg width="29" height="21" viewBox="0 0 29 21" fill="none" xmlns="http://www.w3.org/2000/svg">
<path d="M28.1354 4.86445L25.185 0.615234C24.9214 0.233789 24.4531 0 23.9531 0H5.58725C5.0872 0 4.61896 0.233789 4.35529 0.615234L1.40494 4.86445C-0.117971 7.05879 1.23219 10.1104 4.07798 10.459C4.28255 10.4836 4.49167 10.4959 4.70079 10.4959C6.0464 10.4959 7.23745 9.9627 8.05573 9.13828C8.87401 9.9627 10.0696 10.4959 11.4107 10.4959C12.7563 10.4959 13.9473 9.9627 14.7656 9.13828C15.5839 9.9627 16.7795 10.4959 18.1206 10.4959C19.4662 10.4959 20.6572 9.9627 21.4755 9.13828C22.2983 9.9627 23.4894 10.4959 24.8305 10.4959C25.0441 10.4959 25.2487 10.4836 25.4533 10.459C28.3081 10.1145 29.6629 7.06289 28.1354 4.86445ZM24.8396 11.8125C24.385 11.8125 23.9349 11.751 23.4985 11.6566V15.75H6.04185V11.6566C5.60544 11.7469 5.15539 11.8125 4.70079 11.8125C4.42803 11.8125 4.15072 11.7961 3.88251 11.7633C3.62793 11.7305 3.3779 11.6771 3.13696 11.6156V19.6875C3.13696 20.4135 3.78704 21 4.59168 21H24.9577C25.7624 21 26.4125 20.4135 26.4125 19.6875V11.6156C26.167 11.6813 25.9215 11.7346 25.6669 11.7633C25.3896 11.7961 25.1169 11.8125 24.8396 11.8125Z" fill="#747474"/>
</svg>
