<svg width="21" height="21" viewBox="0 0 21 21" fill="none" xmlns="http://www.w3.org/2000/svg">
<path d="M19.2629 2.49468C18.8127 2.05831 18.1464 1.89573 17.5252 2.06686L3.03825 6.04559C2.38279 6.21758 1.9182 6.71128 1.79304 7.33847C1.66519 7.97678 2.11177 8.78707 2.69521 9.1259L7.22497 11.7553C7.68956 12.0248 8.2892 11.9572 8.67366 11.591L13.8607 6.66165C14.1218 6.40496 14.554 6.40496 14.8151 6.66165C15.0762 6.90979 15.0762 7.31194 14.8151 7.56863L9.61905 12.4988C9.23369 12.8642 9.16166 13.4332 9.44528 13.8747L12.213 18.1957C12.5371 18.7091 13.0954 19 13.7076 19C13.7797 19 13.8607 19 13.9327 18.9914C14.635 18.9059 15.1932 18.4524 15.4003 17.8107L19.6951 4.14607C19.8841 3.56423 19.7131 2.93106 19.2629 2.49468Z" fill="#747474"/>
</svg>
