<svg width="22" height="22" viewBox="0 0 22 22" fill="none" xmlns="http://www.w3.org/2000/svg">
<path fill-rule="evenodd" clip-rule="evenodd" d="M19.4279 7.64783L20.8801 9.3349C21.5101 10.0716 21.5101 11.2889 20.8908 12.0256L19.4386 13.7127C19.161 14.033 18.9368 14.6417 18.9368 15.0581V16.8733C18.9368 18.0051 18.0078 18.934 16.876 18.934H15.0608C14.6337 18.934 14.0357 19.1583 13.7154 19.4359L12.0283 20.888C11.2809 21.518 10.0744 21.518 9.3376 20.888L7.65049 19.4359C7.33017 19.1583 6.72154 18.934 6.30512 18.934H4.45789C3.32607 18.934 2.39712 18.0051 2.39712 16.8733V15.0474C2.39712 14.631 2.17289 14.033 1.90595 13.7127L0.464475 12.015C-0.154825 11.2782 -0.154825 10.0823 0.464475 9.34557L1.90595 7.64783C2.17289 7.3275 2.39712 6.72955 2.39712 6.31313V4.48726C2.39712 3.35543 3.32607 2.42648 4.45789 2.42648H6.30512C6.72154 2.42648 7.33017 2.20225 7.65049 1.93531L9.32692 0.472483C10.0744 -0.157494 11.2809 -0.157494 12.0177 0.472483L13.7047 1.92464C14.0251 2.20225 14.6337 2.42648 15.0501 2.42648H16.8653C17.9971 2.42648 18.9261 3.35543 18.9261 4.48726V6.30245C18.9261 6.72955 19.1503 7.3275 19.4279 7.64783ZM14.007 9.35834C14.4204 8.80549 14.3074 8.02214 13.7545 7.60869C13.2017 7.19524 12.4183 7.30825 12.0049 7.86111L9.77234 10.8464L9.23185 10.3059C8.74369 9.81778 7.95224 9.81778 7.46408 10.3059C6.97593 10.7941 6.97593 11.5856 7.46408 12.0737L9.02512 13.6347C9.28156 13.8912 9.63674 14.0236 9.99848 13.9976C10.3602 13.9717 10.6928 13.7899 10.91 13.4995L14.007 9.35834Z" fill="#5CBD93"/>
</svg>
