<svg width="25" height="15" viewBox="0 0 25 15" fill="none" xmlns="http://www.w3.org/2000/svg">
<path d="M-0.000274658 0H4.27833C4.41887 6.87685 7.5731 9.78974 10.0716 10.3904V0H14.1003V5.9309C16.5675 5.67568 19.1596 2.97297 20.0341 0H24.0628C23.7332 1.54183 23.0763 3.00161 22.1332 4.28829C21.1902 5.57489 19.9812 6.66055 18.5819 7.47748C20.1442 8.22329 21.5243 9.27952 22.6306 10.5763C23.7369 11.8731 24.5444 13.3809 24.9997 15H20.565C20.1564 13.5935 19.3248 12.3345 18.1746 11.3809C17.0246 10.4273 15.6071 9.82151 14.1003 9.63964V15H13.6162C5.07471 15 0.202726 9.36937 -0.000274658 0Z" fill="#747474"/>
</svg>
