<svg width="470" height="971" viewBox="0 0 470 971" fill="none" xmlns="http://www.w3.org/2000/svg">
<path d="M0 -27H2V-17H0V-27Z" fill="#D9D9D9" fill-opacity="0.1"/>
<path d="M0 -2H2V8H0V-2Z" fill="#D9D9D9" fill-opacity="0.1"/>
<path d="M0 23H2V33H0V23Z" fill="#D9D9D9" fill-opacity="0.1"/>
<path d="M0 48H2V58H0V48Z" fill="#D9D9D9" fill-opacity="0.1"/>
<path d="M0 73H2V83H0V73Z" fill="#D9D9D9" fill-opacity="0.1"/>
<path d="M0 98H2V108H0V98Z" fill="#D9D9D9" fill-opacity="0.1"/>
<path d="M0 123H2V133H0V123Z" fill="#D9D9D9" fill-opacity="0.1"/>
<path d="M0 148H2V158H0V148Z" fill="#D9D9D9" fill-opacity="0.1"/>
<path d="M0 173H2V183H0V173Z" fill="#D9D9D9" fill-opacity="0.1"/>
<path d="M0 198H2V208H0V198Z" fill="#D9D9D9" fill-opacity="0.1"/>
<path d="M0 223H2V233H0V223Z" fill="#D9D9D9" fill-opacity="0.1"/>
<path d="M0 248H2V258H0V248Z" fill="#D9D9D9" fill-opacity="0.1"/>
<path d="M0 273H2V283H0V273Z" fill="#D9D9D9" fill-opacity="0.1"/>
<path d="M0 298H2V308H0V298Z" fill="#D9D9D9" fill-opacity="0.1"/>
<path d="M0 323H2V333H0V323Z" fill="#D9D9D9" fill-opacity="0.1"/>
<path d="M0 348H2V358H0V348Z" fill="#D9D9D9" fill-opacity="0.1"/>
<path d="M0 373H2V383H0V373Z" fill="#D9D9D9" fill-opacity="0.1"/>
<path d="M0 398H2V408H0V398Z" fill="#D9D9D9" fill-opacity="0.1"/>
<path d="M0 423H2V433H0V423Z" fill="#D9D9D9" fill-opacity="0.1"/>
<path d="M0 448H2V458H0V448Z" fill="#D9D9D9" fill-opacity="0.1"/>
<path d="M0 473H2V483H0V473Z" fill="#D9D9D9" fill-opacity="0.1"/>
<path d="M0 498H2V508H0V498Z" fill="#D9D9D9" fill-opacity="0.1"/>
<path d="M0 523H2V533H0V523Z" fill="#D9D9D9" fill-opacity="0.1"/>
<path d="M0 548H2V558H0V548Z" fill="#D9D9D9" fill-opacity="0.1"/>
<path d="M0 573H2V583H0V573Z" fill="#D9D9D9" fill-opacity="0.1"/>
<path d="M0 598H2V608H0V598Z" fill="#D9D9D9" fill-opacity="0.1"/>
<path d="M0 623H2V633H0V623Z" fill="#D9D9D9" fill-opacity="0.1"/>
<path d="M0 648H2V658H0V648Z" fill="#D9D9D9" fill-opacity="0.1"/>
<path d="M0 673H2V683H0V673Z" fill="#D9D9D9" fill-opacity="0.1"/>
<path d="M0 698H2V708H0V698Z" fill="#D9D9D9" fill-opacity="0.1"/>
<path d="M0 723H2V733H0V723Z" fill="#D9D9D9" fill-opacity="0.1"/>
<path d="M0 748H2V758H0V748Z" fill="#D9D9D9" fill-opacity="0.1"/>
<path d="M0 773H2V783H0V773Z" fill="#D9D9D9" fill-opacity="0.1"/>
<path d="M0 798H2V808H0V798Z" fill="#D9D9D9" fill-opacity="0.1"/>
<path d="M0 823H2V833H0V823Z" fill="#D9D9D9" fill-opacity="0.1"/>
<path d="M0 848H2V858H0V848Z" fill="#D9D9D9" fill-opacity="0.1"/>
<path d="M0 873H2V883H0V873Z" fill="#D9D9D9" fill-opacity="0.1"/>
<path d="M0 898H2V908H0V898Z" fill="#D9D9D9" fill-opacity="0.1"/>
<path d="M0 923H2V933H0V923Z" fill="#D9D9D9" fill-opacity="0.1"/>
<path d="M0 948H2V958H0V948Z" fill="#D9D9D9" fill-opacity="0.1"/>
<path d="M0 973H2V983H0V973Z" fill="#D9D9D9" fill-opacity="0.1"/>
<path d="M0 998H2V1008H0V998Z" fill="#D9D9D9" fill-opacity="0.1"/>
<path d="M0 1023H2V1033H0V1023Z" fill="#D9D9D9" fill-opacity="0.1"/>
<path d="M0 1048H2V1058H0V1048Z" fill="#D9D9D9" fill-opacity="0.1"/>
<path d="M0 1073H2V1083H0V1073Z" fill="#D9D9D9" fill-opacity="0.1"/>
<path d="M0 1098H2V1108H0V1098Z" fill="#D9D9D9" fill-opacity="0.1"/>
<path d="M0 1123H2V1133H0V1123Z" fill="#D9D9D9" fill-opacity="0.1"/>
<path d="M0 1148H2V1158H0V1148Z" fill="#D9D9D9" fill-opacity="0.1"/>
<path d="M0 1173H2V1183H0V1173Z" fill="#D9D9D9" fill-opacity="0.1"/>
<path d="M0 1198H2V1208H0V1198Z" fill="#D9D9D9" fill-opacity="0.1"/>
<path d="M0 1223H2V1233H0V1223Z" fill="#D9D9D9" fill-opacity="0.1"/>
<path d="M52 -27H54V-17H52V-27Z" fill="#D9D9D9" fill-opacity="0.1"/>
<path d="M52 -2H54V8H52V-2Z" fill="#D9D9D9" fill-opacity="0.1"/>
<path d="M52 23H54V33H52V23Z" fill="#D9D9D9" fill-opacity="0.1"/>
<path d="M52 48H54V58H52V48Z" fill="#D9D9D9" fill-opacity="0.1"/>
<path d="M52 73H54V83H52V73Z" fill="#D9D9D9" fill-opacity="0.1"/>
<path d="M52 98H54V108H52V98Z" fill="#D9D9D9" fill-opacity="0.1"/>
<path d="M52 123H54V133H52V123Z" fill="#D9D9D9" fill-opacity="0.1"/>
<path d="M52 148H54V158H52V148Z" fill="#D9D9D9" fill-opacity="0.1"/>
<path d="M52 173H54V183H52V173Z" fill="#D9D9D9" fill-opacity="0.1"/>
<path d="M52 198H54V208H52V198Z" fill="#D9D9D9" fill-opacity="0.1"/>
<path d="M52 223H54V233H52V223Z" fill="#D9D9D9" fill-opacity="0.1"/>
<path d="M52 248H54V258H52V248Z" fill="#D9D9D9" fill-opacity="0.1"/>
<path d="M52 273H54V283H52V273Z" fill="#D9D9D9" fill-opacity="0.1"/>
<path d="M52 298H54V308H52V298Z" fill="#D9D9D9" fill-opacity="0.1"/>
<path d="M52 323H54V333H52V323Z" fill="#D9D9D9" fill-opacity="0.1"/>
<path d="M52 348H54V358H52V348Z" fill="#D9D9D9" fill-opacity="0.1"/>
<path d="M52 373H54V383H52V373Z" fill="#D9D9D9" fill-opacity="0.1"/>
<path d="M52 398H54V408H52V398Z" fill="#D9D9D9" fill-opacity="0.1"/>
<path d="M52 423H54V433H52V423Z" fill="#D9D9D9" fill-opacity="0.1"/>
<path d="M52 448H54V458H52V448Z" fill="#D9D9D9" fill-opacity="0.1"/>
<path d="M52 473H54V483H52V473Z" fill="#D9D9D9" fill-opacity="0.1"/>
<path d="M52 498H54V508H52V498Z" fill="#D9D9D9" fill-opacity="0.1"/>
<path d="M52 523H54V533H52V523Z" fill="#D9D9D9" fill-opacity="0.1"/>
<path d="M52 548H54V558H52V548Z" fill="#D9D9D9" fill-opacity="0.1"/>
<path d="M52 573H54V583H52V573Z" fill="#D9D9D9" fill-opacity="0.1"/>
<path d="M52 598H54V608H52V598Z" fill="#D9D9D9" fill-opacity="0.1"/>
<path d="M52 623H54V633H52V623Z" fill="#D9D9D9" fill-opacity="0.1"/>
<path d="M52 648H54V658H52V648Z" fill="#D9D9D9" fill-opacity="0.1"/>
<path d="M52 673H54V683H52V673Z" fill="#D9D9D9" fill-opacity="0.1"/>
<path d="M52 698H54V708H52V698Z" fill="#D9D9D9" fill-opacity="0.1"/>
<path d="M52 723H54V733H52V723Z" fill="#D9D9D9" fill-opacity="0.1"/>
<path d="M52 748H54V758H52V748Z" fill="#D9D9D9" fill-opacity="0.1"/>
<path d="M52 773H54V783H52V773Z" fill="#D9D9D9" fill-opacity="0.1"/>
<path d="M52 798H54V808H52V798Z" fill="#D9D9D9" fill-opacity="0.1"/>
<path d="M52 823H54V833H52V823Z" fill="#D9D9D9" fill-opacity="0.1"/>
<path d="M52 848H54V858H52V848Z" fill="#D9D9D9" fill-opacity="0.1"/>
<path d="M52 873H54V883H52V873Z" fill="#D9D9D9" fill-opacity="0.1"/>
<path d="M52 898H54V908H52V898Z" fill="#D9D9D9" fill-opacity="0.1"/>
<path d="M52 923H54V933H52V923Z" fill="#D9D9D9" fill-opacity="0.1"/>
<path d="M52 948H54V958H52V948Z" fill="#D9D9D9" fill-opacity="0.1"/>
<path d="M52 973H54V983H52V973Z" fill="#D9D9D9" fill-opacity="0.1"/>
<path d="M52 998H54V1008H52V998Z" fill="#D9D9D9" fill-opacity="0.1"/>
<path d="M52 1023H54V1033H52V1023Z" fill="#D9D9D9" fill-opacity="0.1"/>
<path d="M52 1048H54V1058H52V1048Z" fill="#D9D9D9" fill-opacity="0.1"/>
<path d="M52 1073H54V1083H52V1073Z" fill="#D9D9D9" fill-opacity="0.1"/>
<path d="M52 1098H54V1108H52V1098Z" fill="#D9D9D9" fill-opacity="0.1"/>
<path d="M52 1123H54V1133H52V1123Z" fill="#D9D9D9" fill-opacity="0.1"/>
<path d="M52 1148H54V1158H52V1148Z" fill="#D9D9D9" fill-opacity="0.1"/>
<path d="M52 1173H54V1183H52V1173Z" fill="#D9D9D9" fill-opacity="0.1"/>
<path d="M52 1198H54V1208H52V1198Z" fill="#D9D9D9" fill-opacity="0.1"/>
<path d="M52 1223H54V1233H52V1223Z" fill="#D9D9D9" fill-opacity="0.1"/>
<path d="M104 -27H106V-17H104V-27Z" fill="#D9D9D9" fill-opacity="0.1"/>
<path d="M104 -2H106V8H104V-2Z" fill="#D9D9D9" fill-opacity="0.1"/>
<path d="M104 23H106V33H104V23Z" fill="#D9D9D9" fill-opacity="0.1"/>
<path d="M104 48H106V58H104V48Z" fill="#D9D9D9" fill-opacity="0.1"/>
<path d="M104 73H106V83H104V73Z" fill="#D9D9D9" fill-opacity="0.1"/>
<path d="M104 98H106V108H104V98Z" fill="#D9D9D9" fill-opacity="0.1"/>
<path d="M104 123H106V133H104V123Z" fill="#D9D9D9" fill-opacity="0.1"/>
<path d="M104 148H106V158H104V148Z" fill="#D9D9D9" fill-opacity="0.1"/>
<path d="M104 173H106V183H104V173Z" fill="#D9D9D9" fill-opacity="0.1"/>
<path d="M104 198H106V208H104V198Z" fill="#D9D9D9" fill-opacity="0.1"/>
<path d="M104 223H106V233H104V223Z" fill="#D9D9D9" fill-opacity="0.1"/>
<path d="M104 248H106V258H104V248Z" fill="#D9D9D9" fill-opacity="0.1"/>
<path d="M104 273H106V283H104V273Z" fill="#D9D9D9" fill-opacity="0.1"/>
<path d="M104 298H106V308H104V298Z" fill="#D9D9D9" fill-opacity="0.1"/>
<path d="M104 323H106V333H104V323Z" fill="#D9D9D9" fill-opacity="0.1"/>
<path d="M104 348H106V358H104V348Z" fill="#D9D9D9" fill-opacity="0.1"/>
<path d="M104 373H106V383H104V373Z" fill="#D9D9D9" fill-opacity="0.1"/>
<path d="M104 398H106V408H104V398Z" fill="#D9D9D9" fill-opacity="0.1"/>
<path d="M104 423H106V433H104V423Z" fill="#D9D9D9" fill-opacity="0.1"/>
<path d="M104 448H106V458H104V448Z" fill="#D9D9D9" fill-opacity="0.1"/>
<path d="M104 473H106V483H104V473Z" fill="#D9D9D9" fill-opacity="0.1"/>
<path d="M104 498H106V508H104V498Z" fill="#D9D9D9" fill-opacity="0.1"/>
<path d="M104 523H106V533H104V523Z" fill="#D9D9D9" fill-opacity="0.1"/>
<path d="M104 548H106V558H104V548Z" fill="#D9D9D9" fill-opacity="0.1"/>
<path d="M104 573H106V583H104V573Z" fill="#D9D9D9" fill-opacity="0.1"/>
<path d="M104 598H106V608H104V598Z" fill="#D9D9D9" fill-opacity="0.1"/>
<path d="M104 623H106V633H104V623Z" fill="#D9D9D9" fill-opacity="0.1"/>
<path d="M104 648H106V658H104V648Z" fill="#D9D9D9" fill-opacity="0.1"/>
<path d="M104 673H106V683H104V673Z" fill="#D9D9D9" fill-opacity="0.1"/>
<path d="M104 698H106V708H104V698Z" fill="#D9D9D9" fill-opacity="0.1"/>
<path d="M104 723H106V733H104V723Z" fill="#D9D9D9" fill-opacity="0.1"/>
<path d="M104 748H106V758H104V748Z" fill="#D9D9D9" fill-opacity="0.1"/>
<path d="M104 773H106V783H104V773Z" fill="#D9D9D9" fill-opacity="0.1"/>
<path d="M104 798H106V808H104V798Z" fill="#D9D9D9" fill-opacity="0.1"/>
<path d="M104 823H106V833H104V823Z" fill="#D9D9D9" fill-opacity="0.1"/>
<path d="M104 848H106V858H104V848Z" fill="#D9D9D9" fill-opacity="0.1"/>
<path d="M104 873H106V883H104V873Z" fill="#D9D9D9" fill-opacity="0.1"/>
<path d="M104 898H106V908H104V898Z" fill="#D9D9D9" fill-opacity="0.1"/>
<path d="M104 923H106V933H104V923Z" fill="#D9D9D9" fill-opacity="0.1"/>
<path d="M104 948H106V958H104V948Z" fill="#D9D9D9" fill-opacity="0.1"/>
<path d="M104 973H106V983H104V973Z" fill="#D9D9D9" fill-opacity="0.1"/>
<path d="M104 998H106V1008H104V998Z" fill="#D9D9D9" fill-opacity="0.1"/>
<path d="M104 1023H106V1033H104V1023Z" fill="#D9D9D9" fill-opacity="0.1"/>
<path d="M104 1048H106V1058H104V1048Z" fill="#D9D9D9" fill-opacity="0.1"/>
<path d="M104 1073H106V1083H104V1073Z" fill="#D9D9D9" fill-opacity="0.1"/>
<path d="M104 1098H106V1108H104V1098Z" fill="#D9D9D9" fill-opacity="0.1"/>
<path d="M104 1123H106V1133H104V1123Z" fill="#D9D9D9" fill-opacity="0.1"/>
<path d="M104 1148H106V1158H104V1148Z" fill="#D9D9D9" fill-opacity="0.1"/>
<path d="M104 1173H106V1183H104V1173Z" fill="#D9D9D9" fill-opacity="0.1"/>
<path d="M104 1198H106V1208H104V1198Z" fill="#D9D9D9" fill-opacity="0.1"/>
<path d="M104 1223H106V1233H104V1223Z" fill="#D9D9D9" fill-opacity="0.1"/>
<path d="M156 -27H158V-17H156V-27Z" fill="#D9D9D9" fill-opacity="0.1"/>
<path d="M156 -2H158V8H156V-2Z" fill="#D9D9D9" fill-opacity="0.1"/>
<path d="M156 23H158V33H156V23Z" fill="#D9D9D9" fill-opacity="0.1"/>
<path d="M156 48H158V58H156V48Z" fill="#D9D9D9" fill-opacity="0.1"/>
<path d="M156 73H158V83H156V73Z" fill="#D9D9D9" fill-opacity="0.1"/>
<path d="M156 98H158V108H156V98Z" fill="#D9D9D9" fill-opacity="0.1"/>
<path d="M156 123H158V133H156V123Z" fill="#D9D9D9" fill-opacity="0.1"/>
<path d="M156 148H158V158H156V148Z" fill="#D9D9D9" fill-opacity="0.1"/>
<path d="M156 173H158V183H156V173Z" fill="#D9D9D9" fill-opacity="0.1"/>
<path d="M156 198H158V208H156V198Z" fill="#D9D9D9" fill-opacity="0.1"/>
<path d="M156 223H158V233H156V223Z" fill="#D9D9D9" fill-opacity="0.1"/>
<path d="M156 248H158V258H156V248Z" fill="#D9D9D9" fill-opacity="0.1"/>
<path d="M156 273H158V283H156V273Z" fill="#D9D9D9" fill-opacity="0.1"/>
<path d="M156 298H158V308H156V298Z" fill="#D9D9D9" fill-opacity="0.1"/>
<path d="M156 323H158V333H156V323Z" fill="#D9D9D9" fill-opacity="0.1"/>
<path d="M156 348H158V358H156V348Z" fill="#D9D9D9" fill-opacity="0.1"/>
<path d="M156 373H158V383H156V373Z" fill="#D9D9D9" fill-opacity="0.1"/>
<path d="M156 398H158V408H156V398Z" fill="#D9D9D9" fill-opacity="0.1"/>
<path d="M156 423H158V433H156V423Z" fill="#D9D9D9" fill-opacity="0.1"/>
<path d="M156 448H158V458H156V448Z" fill="#D9D9D9" fill-opacity="0.1"/>
<path d="M156 473H158V483H156V473Z" fill="#D9D9D9" fill-opacity="0.1"/>
<path d="M156 498H158V508H156V498Z" fill="#D9D9D9" fill-opacity="0.1"/>
<path d="M156 523H158V533H156V523Z" fill="#D9D9D9" fill-opacity="0.1"/>
<path d="M156 548H158V558H156V548Z" fill="#D9D9D9" fill-opacity="0.1"/>
<path d="M156 573H158V583H156V573Z" fill="#D9D9D9" fill-opacity="0.1"/>
<path d="M156 598H158V608H156V598Z" fill="#D9D9D9" fill-opacity="0.1"/>
<path d="M156 623H158V633H156V623Z" fill="#D9D9D9" fill-opacity="0.1"/>
<path d="M156 648H158V658H156V648Z" fill="#D9D9D9" fill-opacity="0.1"/>
<path d="M156 673H158V683H156V673Z" fill="#D9D9D9" fill-opacity="0.1"/>
<path d="M156 698H158V708H156V698Z" fill="#D9D9D9" fill-opacity="0.1"/>
<path d="M156 723H158V733H156V723Z" fill="#D9D9D9" fill-opacity="0.1"/>
<path d="M156 748H158V758H156V748Z" fill="#D9D9D9" fill-opacity="0.1"/>
<path d="M156 773H158V783H156V773Z" fill="#D9D9D9" fill-opacity="0.1"/>
<path d="M156 798H158V808H156V798Z" fill="#D9D9D9" fill-opacity="0.1"/>
<path d="M156 823H158V833H156V823Z" fill="#D9D9D9" fill-opacity="0.1"/>
<path d="M156 848H158V858H156V848Z" fill="#D9D9D9" fill-opacity="0.1"/>
<path d="M156 873H158V883H156V873Z" fill="#D9D9D9" fill-opacity="0.1"/>
<path d="M156 898H158V908H156V898Z" fill="#D9D9D9" fill-opacity="0.1"/>
<path d="M156 923H158V933H156V923Z" fill="#D9D9D9" fill-opacity="0.1"/>
<path d="M156 948H158V958H156V948Z" fill="#D9D9D9" fill-opacity="0.1"/>
<path d="M156 973H158V983H156V973Z" fill="#D9D9D9" fill-opacity="0.1"/>
<path d="M156 998H158V1008H156V998Z" fill="#D9D9D9" fill-opacity="0.1"/>
<path d="M156 1023H158V1033H156V1023Z" fill="#D9D9D9" fill-opacity="0.1"/>
<path d="M156 1048H158V1058H156V1048Z" fill="#D9D9D9" fill-opacity="0.1"/>
<path d="M156 1073H158V1083H156V1073Z" fill="#D9D9D9" fill-opacity="0.1"/>
<path d="M156 1098H158V1108H156V1098Z" fill="#D9D9D9" fill-opacity="0.1"/>
<path d="M156 1123H158V1133H156V1123Z" fill="#D9D9D9" fill-opacity="0.1"/>
<path d="M156 1148H158V1158H156V1148Z" fill="#D9D9D9" fill-opacity="0.1"/>
<path d="M156 1173H158V1183H156V1173Z" fill="#D9D9D9" fill-opacity="0.1"/>
<path d="M156 1198H158V1208H156V1198Z" fill="#D9D9D9" fill-opacity="0.1"/>
<path d="M156 1223H158V1233H156V1223Z" fill="#D9D9D9" fill-opacity="0.1"/>
<path d="M208 -27H210V-17H208V-27Z" fill="#D9D9D9" fill-opacity="0.1"/>
<path d="M208 -2H210V8H208V-2Z" fill="#D9D9D9" fill-opacity="0.1"/>
<path d="M208 23H210V33H208V23Z" fill="#D9D9D9" fill-opacity="0.1"/>
<path d="M208 48H210V58H208V48Z" fill="#D9D9D9" fill-opacity="0.1"/>
<path d="M208 73H210V83H208V73Z" fill="#D9D9D9" fill-opacity="0.1"/>
<path d="M208 98H210V108H208V98Z" fill="#D9D9D9" fill-opacity="0.1"/>
<path d="M208 123H210V133H208V123Z" fill="#D9D9D9" fill-opacity="0.1"/>
<path d="M208 148H210V158H208V148Z" fill="#D9D9D9" fill-opacity="0.1"/>
<path d="M208 173H210V183H208V173Z" fill="#D9D9D9" fill-opacity="0.1"/>
<path d="M208 198H210V208H208V198Z" fill="#D9D9D9" fill-opacity="0.1"/>
<path d="M208 223H210V233H208V223Z" fill="#D9D9D9" fill-opacity="0.1"/>
<path d="M208 248H210V258H208V248Z" fill="#D9D9D9" fill-opacity="0.1"/>
<path d="M208 273H210V283H208V273Z" fill="#D9D9D9" fill-opacity="0.1"/>
<path d="M208 298H210V308H208V298Z" fill="#D9D9D9" fill-opacity="0.1"/>
<path d="M208 323H210V333H208V323Z" fill="#D9D9D9" fill-opacity="0.1"/>
<path d="M208 348H210V358H208V348Z" fill="#D9D9D9" fill-opacity="0.1"/>
<path d="M208 373H210V383H208V373Z" fill="#D9D9D9" fill-opacity="0.1"/>
<path d="M208 398H210V408H208V398Z" fill="#D9D9D9" fill-opacity="0.1"/>
<path d="M208 423H210V433H208V423Z" fill="#D9D9D9" fill-opacity="0.1"/>
<path d="M208 448H210V458H208V448Z" fill="#D9D9D9" fill-opacity="0.1"/>
<path d="M208 473H210V483H208V473Z" fill="#D9D9D9" fill-opacity="0.1"/>
<path d="M208 498H210V508H208V498Z" fill="#D9D9D9" fill-opacity="0.1"/>
<path d="M208 523H210V533H208V523Z" fill="#D9D9D9" fill-opacity="0.1"/>
<path d="M208 548H210V558H208V548Z" fill="#D9D9D9" fill-opacity="0.1"/>
<path d="M208 573H210V583H208V573Z" fill="#D9D9D9" fill-opacity="0.1"/>
<path d="M208 598H210V608H208V598Z" fill="#D9D9D9" fill-opacity="0.1"/>
<path d="M208 623H210V633H208V623Z" fill="#D9D9D9" fill-opacity="0.1"/>
<path d="M208 648H210V658H208V648Z" fill="#D9D9D9" fill-opacity="0.1"/>
<path d="M208 673H210V683H208V673Z" fill="#D9D9D9" fill-opacity="0.1"/>
<path d="M208 698H210V708H208V698Z" fill="#D9D9D9" fill-opacity="0.1"/>
<path d="M208 723H210V733H208V723Z" fill="#D9D9D9" fill-opacity="0.1"/>
<path d="M208 748H210V758H208V748Z" fill="#D9D9D9" fill-opacity="0.1"/>
<path d="M208 773H210V783H208V773Z" fill="#D9D9D9" fill-opacity="0.1"/>
<path d="M208 798H210V808H208V798Z" fill="#D9D9D9" fill-opacity="0.1"/>
<path d="M208 823H210V833H208V823Z" fill="#D9D9D9" fill-opacity="0.1"/>
<path d="M208 848H210V858H208V848Z" fill="#D9D9D9" fill-opacity="0.1"/>
<path d="M208 873H210V883H208V873Z" fill="#D9D9D9" fill-opacity="0.1"/>
<path d="M208 898H210V908H208V898Z" fill="#D9D9D9" fill-opacity="0.1"/>
<path d="M208 923H210V933H208V923Z" fill="#D9D9D9" fill-opacity="0.1"/>
<path d="M208 948H210V958H208V948Z" fill="#D9D9D9" fill-opacity="0.1"/>
<path d="M208 973H210V983H208V973Z" fill="#D9D9D9" fill-opacity="0.1"/>
<path d="M208 998H210V1008H208V998Z" fill="#D9D9D9" fill-opacity="0.1"/>
<path d="M208 1023H210V1033H208V1023Z" fill="#D9D9D9" fill-opacity="0.1"/>
<path d="M208 1048H210V1058H208V1048Z" fill="#D9D9D9" fill-opacity="0.1"/>
<path d="M208 1073H210V1083H208V1073Z" fill="#D9D9D9" fill-opacity="0.1"/>
<path d="M208 1098H210V1108H208V1098Z" fill="#D9D9D9" fill-opacity="0.1"/>
<path d="M208 1123H210V1133H208V1123Z" fill="#D9D9D9" fill-opacity="0.1"/>
<path d="M208 1148H210V1158H208V1148Z" fill="#D9D9D9" fill-opacity="0.1"/>
<path d="M208 1173H210V1183H208V1173Z" fill="#D9D9D9" fill-opacity="0.1"/>
<path d="M208 1198H210V1208H208V1198Z" fill="#D9D9D9" fill-opacity="0.1"/>
<path d="M208 1223H210V1233H208V1223Z" fill="#D9D9D9" fill-opacity="0.1"/>
<path d="M260 -27H262V-17H260V-27Z" fill="#D9D9D9" fill-opacity="0.1"/>
<path d="M260 -2H262V8H260V-2Z" fill="#D9D9D9" fill-opacity="0.1"/>
<path d="M260 23H262V33H260V23Z" fill="#D9D9D9" fill-opacity="0.1"/>
<path d="M260 48H262V58H260V48Z" fill="#D9D9D9" fill-opacity="0.1"/>
<path d="M260 73H262V83H260V73Z" fill="#D9D9D9" fill-opacity="0.1"/>
<path d="M260 98H262V108H260V98Z" fill="#D9D9D9" fill-opacity="0.1"/>
<path d="M260 123H262V133H260V123Z" fill="#D9D9D9" fill-opacity="0.1"/>
<path d="M260 148H262V158H260V148Z" fill="#D9D9D9" fill-opacity="0.1"/>
<path d="M260 173H262V183H260V173Z" fill="#D9D9D9" fill-opacity="0.1"/>
<path d="M260 198H262V208H260V198Z" fill="#D9D9D9" fill-opacity="0.1"/>
<path d="M260 223H262V233H260V223Z" fill="#D9D9D9" fill-opacity="0.1"/>
<path d="M260 248H262V258H260V248Z" fill="#D9D9D9" fill-opacity="0.1"/>
<path d="M260 273H262V283H260V273Z" fill="#D9D9D9" fill-opacity="0.1"/>
<path d="M260 298H262V308H260V298Z" fill="#D9D9D9" fill-opacity="0.1"/>
<path d="M260 323H262V333H260V323Z" fill="#D9D9D9" fill-opacity="0.1"/>
<path d="M260 348H262V358H260V348Z" fill="#D9D9D9" fill-opacity="0.1"/>
<path d="M260 373H262V383H260V373Z" fill="#D9D9D9" fill-opacity="0.1"/>
<path d="M260 398H262V408H260V398Z" fill="#D9D9D9" fill-opacity="0.1"/>
<path d="M260 423H262V433H260V423Z" fill="#D9D9D9" fill-opacity="0.1"/>
<path d="M260 448H262V458H260V448Z" fill="#D9D9D9" fill-opacity="0.1"/>
<path d="M260 473H262V483H260V473Z" fill="#D9D9D9" fill-opacity="0.1"/>
<path d="M260 498H262V508H260V498Z" fill="#D9D9D9" fill-opacity="0.1"/>
<path d="M260 523H262V533H260V523Z" fill="#D9D9D9" fill-opacity="0.1"/>
<path d="M260 548H262V558H260V548Z" fill="#D9D9D9" fill-opacity="0.1"/>
<path d="M260 573H262V583H260V573Z" fill="#D9D9D9" fill-opacity="0.1"/>
<path d="M260 598H262V608H260V598Z" fill="#D9D9D9" fill-opacity="0.1"/>
<path d="M260 623H262V633H260V623Z" fill="#D9D9D9" fill-opacity="0.1"/>
<path d="M260 648H262V658H260V648Z" fill="#D9D9D9" fill-opacity="0.1"/>
<path d="M260 673H262V683H260V673Z" fill="#D9D9D9" fill-opacity="0.1"/>
<path d="M260 698H262V708H260V698Z" fill="#D9D9D9" fill-opacity="0.1"/>
<path d="M260 723H262V733H260V723Z" fill="#D9D9D9" fill-opacity="0.1"/>
<path d="M260 748H262V758H260V748Z" fill="#D9D9D9" fill-opacity="0.1"/>
<path d="M260 773H262V783H260V773Z" fill="#D9D9D9" fill-opacity="0.1"/>
<path d="M260 798H262V808H260V798Z" fill="#D9D9D9" fill-opacity="0.1"/>
<path d="M260 823H262V833H260V823Z" fill="#D9D9D9" fill-opacity="0.1"/>
<path d="M260 848H262V858H260V848Z" fill="#D9D9D9" fill-opacity="0.1"/>
<path d="M260 873H262V883H260V873Z" fill="#D9D9D9" fill-opacity="0.1"/>
<path d="M260 898H262V908H260V898Z" fill="#D9D9D9" fill-opacity="0.1"/>
<path d="M260 923H262V933H260V923Z" fill="#D9D9D9" fill-opacity="0.1"/>
<path d="M260 948H262V958H260V948Z" fill="#D9D9D9" fill-opacity="0.1"/>
<path d="M260 973H262V983H260V973Z" fill="#D9D9D9" fill-opacity="0.1"/>
<path d="M260 998H262V1008H260V998Z" fill="#D9D9D9" fill-opacity="0.1"/>
<path d="M260 1023H262V1033H260V1023Z" fill="#D9D9D9" fill-opacity="0.1"/>
<path d="M260 1048H262V1058H260V1048Z" fill="#D9D9D9" fill-opacity="0.1"/>
<path d="M260 1073H262V1083H260V1073Z" fill="#D9D9D9" fill-opacity="0.1"/>
<path d="M260 1098H262V1108H260V1098Z" fill="#D9D9D9" fill-opacity="0.1"/>
<path d="M260 1123H262V1133H260V1123Z" fill="#D9D9D9" fill-opacity="0.1"/>
<path d="M260 1148H262V1158H260V1148Z" fill="#D9D9D9" fill-opacity="0.1"/>
<path d="M260 1173H262V1183H260V1173Z" fill="#D9D9D9" fill-opacity="0.1"/>
<path d="M260 1198H262V1208H260V1198Z" fill="#D9D9D9" fill-opacity="0.1"/>
<path d="M260 1223H262V1233H260V1223Z" fill="#D9D9D9" fill-opacity="0.1"/>
<path d="M312 -27H314V-17H312V-27Z" fill="#D9D9D9" fill-opacity="0.1"/>
<path d="M312 -2H314V8H312V-2Z" fill="#D9D9D9" fill-opacity="0.1"/>
<path d="M312 23H314V33H312V23Z" fill="#D9D9D9" fill-opacity="0.1"/>
<path d="M312 48H314V58H312V48Z" fill="#D9D9D9" fill-opacity="0.1"/>
<path d="M312 73H314V83H312V73Z" fill="#D9D9D9" fill-opacity="0.1"/>
<path d="M312 98H314V108H312V98Z" fill="#D9D9D9" fill-opacity="0.1"/>
<path d="M312 123H314V133H312V123Z" fill="#D9D9D9" fill-opacity="0.1"/>
<path d="M312 148H314V158H312V148Z" fill="#D9D9D9" fill-opacity="0.1"/>
<path d="M312 173H314V183H312V173Z" fill="#D9D9D9" fill-opacity="0.1"/>
<path d="M312 198H314V208H312V198Z" fill="#D9D9D9" fill-opacity="0.1"/>
<path d="M312 223H314V233H312V223Z" fill="#D9D9D9" fill-opacity="0.1"/>
<path d="M312 248H314V258H312V248Z" fill="#D9D9D9" fill-opacity="0.1"/>
<path d="M312 273H314V283H312V273Z" fill="#D9D9D9" fill-opacity="0.1"/>
<path d="M312 298H314V308H312V298Z" fill="#D9D9D9" fill-opacity="0.1"/>
<path d="M312 323H314V333H312V323Z" fill="#D9D9D9" fill-opacity="0.1"/>
<path d="M312 348H314V358H312V348Z" fill="#D9D9D9" fill-opacity="0.1"/>
<path d="M312 373H314V383H312V373Z" fill="#D9D9D9" fill-opacity="0.1"/>
<path d="M312 398H314V408H312V398Z" fill="#D9D9D9" fill-opacity="0.1"/>
<path d="M312 423H314V433H312V423Z" fill="#D9D9D9" fill-opacity="0.1"/>
<path d="M312 448H314V458H312V448Z" fill="#D9D9D9" fill-opacity="0.1"/>
<path d="M312 473H314V483H312V473Z" fill="#D9D9D9" fill-opacity="0.1"/>
<path d="M312 498H314V508H312V498Z" fill="#D9D9D9" fill-opacity="0.1"/>
<path d="M312 523H314V533H312V523Z" fill="#D9D9D9" fill-opacity="0.1"/>
<path d="M312 548H314V558H312V548Z" fill="#D9D9D9" fill-opacity="0.1"/>
<path d="M312 573H314V583H312V573Z" fill="#D9D9D9" fill-opacity="0.1"/>
<path d="M312 598H314V608H312V598Z" fill="#D9D9D9" fill-opacity="0.1"/>
<path d="M312 623H314V633H312V623Z" fill="#D9D9D9" fill-opacity="0.1"/>
<path d="M312 648H314V658H312V648Z" fill="#D9D9D9" fill-opacity="0.1"/>
<path d="M312 673H314V683H312V673Z" fill="#D9D9D9" fill-opacity="0.1"/>
<path d="M312 698H314V708H312V698Z" fill="#D9D9D9" fill-opacity="0.1"/>
<path d="M312 723H314V733H312V723Z" fill="#D9D9D9" fill-opacity="0.1"/>
<path d="M312 748H314V758H312V748Z" fill="#D9D9D9" fill-opacity="0.1"/>
<path d="M312 773H314V783H312V773Z" fill="#D9D9D9" fill-opacity="0.1"/>
<path d="M312 798H314V808H312V798Z" fill="#D9D9D9" fill-opacity="0.1"/>
<path d="M312 823H314V833H312V823Z" fill="#D9D9D9" fill-opacity="0.1"/>
<path d="M312 848H314V858H312V848Z" fill="#D9D9D9" fill-opacity="0.1"/>
<path d="M312 873H314V883H312V873Z" fill="#D9D9D9" fill-opacity="0.1"/>
<path d="M312 898H314V908H312V898Z" fill="#D9D9D9" fill-opacity="0.1"/>
<path d="M312 923H314V933H312V923Z" fill="#D9D9D9" fill-opacity="0.1"/>
<path d="M312 948H314V958H312V948Z" fill="#D9D9D9" fill-opacity="0.1"/>
<path d="M312 973H314V983H312V973Z" fill="#D9D9D9" fill-opacity="0.1"/>
<path d="M312 998H314V1008H312V998Z" fill="#D9D9D9" fill-opacity="0.1"/>
<path d="M312 1023H314V1033H312V1023Z" fill="#D9D9D9" fill-opacity="0.1"/>
<path d="M312 1048H314V1058H312V1048Z" fill="#D9D9D9" fill-opacity="0.1"/>
<path d="M312 1073H314V1083H312V1073Z" fill="#D9D9D9" fill-opacity="0.1"/>
<path d="M312 1098H314V1108H312V1098Z" fill="#D9D9D9" fill-opacity="0.1"/>
<path d="M312 1123H314V1133H312V1123Z" fill="#D9D9D9" fill-opacity="0.1"/>
<path d="M312 1148H314V1158H312V1148Z" fill="#D9D9D9" fill-opacity="0.1"/>
<path d="M312 1173H314V1183H312V1173Z" fill="#D9D9D9" fill-opacity="0.1"/>
<path d="M312 1198H314V1208H312V1198Z" fill="#D9D9D9" fill-opacity="0.1"/>
<path d="M312 1223H314V1233H312V1223Z" fill="#D9D9D9" fill-opacity="0.1"/>
<path d="M364 -27H366V-17H364V-27Z" fill="#D9D9D9" fill-opacity="0.1"/>
<path d="M364 -2H366V8H364V-2Z" fill="#D9D9D9" fill-opacity="0.1"/>
<path d="M364 23H366V33H364V23Z" fill="#D9D9D9" fill-opacity="0.1"/>
<path d="M364 48H366V58H364V48Z" fill="#D9D9D9" fill-opacity="0.1"/>
<path d="M364 73H366V83H364V73Z" fill="#D9D9D9" fill-opacity="0.1"/>
<path d="M364 98H366V108H364V98Z" fill="#D9D9D9" fill-opacity="0.1"/>
<path d="M364 123H366V133H364V123Z" fill="#D9D9D9" fill-opacity="0.1"/>
<path d="M364 148H366V158H364V148Z" fill="#D9D9D9" fill-opacity="0.1"/>
<path d="M364 173H366V183H364V173Z" fill="#D9D9D9" fill-opacity="0.1"/>
<path d="M364 198H366V208H364V198Z" fill="#D9D9D9" fill-opacity="0.1"/>
<path d="M364 223H366V233H364V223Z" fill="#D9D9D9" fill-opacity="0.1"/>
<path d="M364 248H366V258H364V248Z" fill="#D9D9D9" fill-opacity="0.1"/>
<path d="M364 273H366V283H364V273Z" fill="#D9D9D9" fill-opacity="0.1"/>
<path d="M364 298H366V308H364V298Z" fill="#D9D9D9" fill-opacity="0.1"/>
<path d="M364 323H366V333H364V323Z" fill="#D9D9D9" fill-opacity="0.1"/>
<path d="M364 348H366V358H364V348Z" fill="#D9D9D9" fill-opacity="0.1"/>
<path d="M364 373H366V383H364V373Z" fill="#D9D9D9" fill-opacity="0.1"/>
<path d="M364 398H366V408H364V398Z" fill="#D9D9D9" fill-opacity="0.1"/>
<path d="M364 423H366V433H364V423Z" fill="#D9D9D9" fill-opacity="0.1"/>
<path d="M364 448H366V458H364V448Z" fill="#D9D9D9" fill-opacity="0.1"/>
<path d="M364 473H366V483H364V473Z" fill="#D9D9D9" fill-opacity="0.1"/>
<path d="M364 498H366V508H364V498Z" fill="#D9D9D9" fill-opacity="0.1"/>
<path d="M364 523H366V533H364V523Z" fill="#D9D9D9" fill-opacity="0.1"/>
<path d="M364 548H366V558H364V548Z" fill="#D9D9D9" fill-opacity="0.1"/>
<path d="M364 573H366V583H364V573Z" fill="#D9D9D9" fill-opacity="0.1"/>
<path d="M364 598H366V608H364V598Z" fill="#D9D9D9" fill-opacity="0.1"/>
<path d="M364 623H366V633H364V623Z" fill="#D9D9D9" fill-opacity="0.1"/>
<path d="M364 648H366V658H364V648Z" fill="#D9D9D9" fill-opacity="0.1"/>
<path d="M364 673H366V683H364V673Z" fill="#D9D9D9" fill-opacity="0.1"/>
<path d="M364 698H366V708H364V698Z" fill="#D9D9D9" fill-opacity="0.1"/>
<path d="M364 723H366V733H364V723Z" fill="#D9D9D9" fill-opacity="0.1"/>
<path d="M364 748H366V758H364V748Z" fill="#D9D9D9" fill-opacity="0.1"/>
<path d="M364 773H366V783H364V773Z" fill="#D9D9D9" fill-opacity="0.1"/>
<path d="M364 798H366V808H364V798Z" fill="#D9D9D9" fill-opacity="0.1"/>
<path d="M364 823H366V833H364V823Z" fill="#D9D9D9" fill-opacity="0.1"/>
<path d="M364 848H366V858H364V848Z" fill="#D9D9D9" fill-opacity="0.1"/>
<path d="M364 873H366V883H364V873Z" fill="#D9D9D9" fill-opacity="0.1"/>
<path d="M364 898H366V908H364V898Z" fill="#D9D9D9" fill-opacity="0.1"/>
<path d="M364 923H366V933H364V923Z" fill="#D9D9D9" fill-opacity="0.1"/>
<path d="M364 948H366V958H364V948Z" fill="#D9D9D9" fill-opacity="0.1"/>
<path d="M364 973H366V983H364V973Z" fill="#D9D9D9" fill-opacity="0.1"/>
<path d="M364 998H366V1008H364V998Z" fill="#D9D9D9" fill-opacity="0.1"/>
<path d="M364 1023H366V1033H364V1023Z" fill="#D9D9D9" fill-opacity="0.1"/>
<path d="M364 1048H366V1058H364V1048Z" fill="#D9D9D9" fill-opacity="0.1"/>
<path d="M364 1073H366V1083H364V1073Z" fill="#D9D9D9" fill-opacity="0.1"/>
<path d="M364 1098H366V1108H364V1098Z" fill="#D9D9D9" fill-opacity="0.1"/>
<path d="M364 1123H366V1133H364V1123Z" fill="#D9D9D9" fill-opacity="0.1"/>
<path d="M364 1148H366V1158H364V1148Z" fill="#D9D9D9" fill-opacity="0.1"/>
<path d="M364 1173H366V1183H364V1173Z" fill="#D9D9D9" fill-opacity="0.1"/>
<path d="M364 1198H366V1208H364V1198Z" fill="#D9D9D9" fill-opacity="0.1"/>
<path d="M364 1223H366V1233H364V1223Z" fill="#D9D9D9" fill-opacity="0.1"/>
<path d="M416 -27H418V-17H416V-27Z" fill="#D9D9D9" fill-opacity="0.1"/>
<path d="M416 -2H418V8H416V-2Z" fill="#D9D9D9" fill-opacity="0.1"/>
<path d="M416 23H418V33H416V23Z" fill="#D9D9D9" fill-opacity="0.1"/>
<path d="M416 48H418V58H416V48Z" fill="#D9D9D9" fill-opacity="0.1"/>
<path d="M416 73H418V83H416V73Z" fill="#D9D9D9" fill-opacity="0.1"/>
<path d="M416 98H418V108H416V98Z" fill="#D9D9D9" fill-opacity="0.1"/>
<path d="M416 123H418V133H416V123Z" fill="#D9D9D9" fill-opacity="0.1"/>
<path d="M416 148H418V158H416V148Z" fill="#D9D9D9" fill-opacity="0.1"/>
<path d="M416 173H418V183H416V173Z" fill="#D9D9D9" fill-opacity="0.1"/>
<path d="M416 198H418V208H416V198Z" fill="#D9D9D9" fill-opacity="0.1"/>
<path d="M416 223H418V233H416V223Z" fill="#D9D9D9" fill-opacity="0.1"/>
<path d="M416 248H418V258H416V248Z" fill="#D9D9D9" fill-opacity="0.1"/>
<path d="M416 273H418V283H416V273Z" fill="#D9D9D9" fill-opacity="0.1"/>
<path d="M416 298H418V308H416V298Z" fill="#D9D9D9" fill-opacity="0.1"/>
<path d="M416 323H418V333H416V323Z" fill="#D9D9D9" fill-opacity="0.1"/>
<path d="M416 348H418V358H416V348Z" fill="#D9D9D9" fill-opacity="0.1"/>
<path d="M416 373H418V383H416V373Z" fill="#D9D9D9" fill-opacity="0.1"/>
<path d="M416 398H418V408H416V398Z" fill="#D9D9D9" fill-opacity="0.1"/>
<path d="M416 423H418V433H416V423Z" fill="#D9D9D9" fill-opacity="0.1"/>
<path d="M416 448H418V458H416V448Z" fill="#D9D9D9" fill-opacity="0.1"/>
<path d="M416 473H418V483H416V473Z" fill="#D9D9D9" fill-opacity="0.1"/>
<path d="M416 498H418V508H416V498Z" fill="#D9D9D9" fill-opacity="0.1"/>
<path d="M416 523H418V533H416V523Z" fill="#D9D9D9" fill-opacity="0.1"/>
<path d="M416 548H418V558H416V548Z" fill="#D9D9D9" fill-opacity="0.1"/>
<path d="M416 573H418V583H416V573Z" fill="#D9D9D9" fill-opacity="0.1"/>
<path d="M416 598H418V608H416V598Z" fill="#D9D9D9" fill-opacity="0.1"/>
<path d="M416 623H418V633H416V623Z" fill="#D9D9D9" fill-opacity="0.1"/>
<path d="M416 648H418V658H416V648Z" fill="#D9D9D9" fill-opacity="0.1"/>
<path d="M416 673H418V683H416V673Z" fill="#D9D9D9" fill-opacity="0.1"/>
<path d="M416 698H418V708H416V698Z" fill="#D9D9D9" fill-opacity="0.1"/>
<path d="M416 723H418V733H416V723Z" fill="#D9D9D9" fill-opacity="0.1"/>
<path d="M416 748H418V758H416V748Z" fill="#D9D9D9" fill-opacity="0.1"/>
<path d="M416 773H418V783H416V773Z" fill="#D9D9D9" fill-opacity="0.1"/>
<path d="M416 798H418V808H416V798Z" fill="#D9D9D9" fill-opacity="0.1"/>
<path d="M416 823H418V833H416V823Z" fill="#D9D9D9" fill-opacity="0.1"/>
<path d="M416 848H418V858H416V848Z" fill="#D9D9D9" fill-opacity="0.1"/>
<path d="M416 873H418V883H416V873Z" fill="#D9D9D9" fill-opacity="0.1"/>
<path d="M416 898H418V908H416V898Z" fill="#D9D9D9" fill-opacity="0.1"/>
<path d="M416 923H418V933H416V923Z" fill="#D9D9D9" fill-opacity="0.1"/>
<path d="M416 948H418V958H416V948Z" fill="#D9D9D9" fill-opacity="0.1"/>
<path d="M416 973H418V983H416V973Z" fill="#D9D9D9" fill-opacity="0.1"/>
<path d="M416 998H418V1008H416V998Z" fill="#D9D9D9" fill-opacity="0.1"/>
<path d="M416 1023H418V1033H416V1023Z" fill="#D9D9D9" fill-opacity="0.1"/>
<path d="M416 1048H418V1058H416V1048Z" fill="#D9D9D9" fill-opacity="0.1"/>
<path d="M416 1073H418V1083H416V1073Z" fill="#D9D9D9" fill-opacity="0.1"/>
<path d="M416 1098H418V1108H416V1098Z" fill="#D9D9D9" fill-opacity="0.1"/>
<path d="M416 1123H418V1133H416V1123Z" fill="#D9D9D9" fill-opacity="0.1"/>
<path d="M416 1148H418V1158H416V1148Z" fill="#D9D9D9" fill-opacity="0.1"/>
<path d="M416 1173H418V1183H416V1173Z" fill="#D9D9D9" fill-opacity="0.1"/>
<path d="M416 1198H418V1208H416V1198Z" fill="#D9D9D9" fill-opacity="0.1"/>
<path d="M416 1223H418V1233H416V1223Z" fill="#D9D9D9" fill-opacity="0.1"/>
<path d="M468 -27H470V-17H468V-27Z" fill="#D9D9D9" fill-opacity="0.1"/>
<path d="M468 -2H470V8H468V-2Z" fill="#D9D9D9" fill-opacity="0.1"/>
<path d="M468 23H470V33H468V23Z" fill="#D9D9D9" fill-opacity="0.1"/>
<path d="M468 48H470V58H468V48Z" fill="#D9D9D9" fill-opacity="0.1"/>
<path d="M468 73H470V83H468V73Z" fill="#D9D9D9" fill-opacity="0.1"/>
<path d="M468 98H470V108H468V98Z" fill="#D9D9D9" fill-opacity="0.1"/>
<path d="M468 123H470V133H468V123Z" fill="#D9D9D9" fill-opacity="0.1"/>
<path d="M468 148H470V158H468V148Z" fill="#D9D9D9" fill-opacity="0.1"/>
<path d="M468 173H470V183H468V173Z" fill="#D9D9D9" fill-opacity="0.1"/>
<path d="M468 198H470V208H468V198Z" fill="#D9D9D9" fill-opacity="0.1"/>
<path d="M468 223H470V233H468V223Z" fill="#D9D9D9" fill-opacity="0.1"/>
<path d="M468 248H470V258H468V248Z" fill="#D9D9D9" fill-opacity="0.1"/>
<path d="M468 273H470V283H468V273Z" fill="#D9D9D9" fill-opacity="0.1"/>
<path d="M468 298H470V308H468V298Z" fill="#D9D9D9" fill-opacity="0.1"/>
<path d="M468 323H470V333H468V323Z" fill="#D9D9D9" fill-opacity="0.1"/>
<path d="M468 348H470V358H468V348Z" fill="#D9D9D9" fill-opacity="0.1"/>
<path d="M468 373H470V383H468V373Z" fill="#D9D9D9" fill-opacity="0.1"/>
<path d="M468 398H470V408H468V398Z" fill="#D9D9D9" fill-opacity="0.1"/>
<path d="M468 423H470V433H468V423Z" fill="#D9D9D9" fill-opacity="0.1"/>
<path d="M468 448H470V458H468V448Z" fill="#D9D9D9" fill-opacity="0.1"/>
<path d="M468 473H470V483H468V473Z" fill="#D9D9D9" fill-opacity="0.1"/>
<path d="M468 498H470V508H468V498Z" fill="#D9D9D9" fill-opacity="0.1"/>
<path d="M468 523H470V533H468V523Z" fill="#D9D9D9" fill-opacity="0.1"/>
<path d="M468 548H470V558H468V548Z" fill="#D9D9D9" fill-opacity="0.1"/>
<path d="M468 573H470V583H468V573Z" fill="#D9D9D9" fill-opacity="0.1"/>
<path d="M468 598H470V608H468V598Z" fill="#D9D9D9" fill-opacity="0.1"/>
<path d="M468 623H470V633H468V623Z" fill="#D9D9D9" fill-opacity="0.1"/>
<path d="M468 648H470V658H468V648Z" fill="#D9D9D9" fill-opacity="0.1"/>
<path d="M468 673H470V683H468V673Z" fill="#D9D9D9" fill-opacity="0.1"/>
<path d="M468 698H470V708H468V698Z" fill="#D9D9D9" fill-opacity="0.1"/>
<path d="M468 723H470V733H468V723Z" fill="#D9D9D9" fill-opacity="0.1"/>
<path d="M468 748H470V758H468V748Z" fill="#D9D9D9" fill-opacity="0.1"/>
<path d="M468 773H470V783H468V773Z" fill="#D9D9D9" fill-opacity="0.1"/>
<path d="M468 798H470V808H468V798Z" fill="#D9D9D9" fill-opacity="0.1"/>
<path d="M468 823H470V833H468V823Z" fill="#D9D9D9" fill-opacity="0.1"/>
<path d="M468 848H470V858H468V848Z" fill="#D9D9D9" fill-opacity="0.1"/>
<path d="M468 873H470V883H468V873Z" fill="#D9D9D9" fill-opacity="0.1"/>
<path d="M468 898H470V908H468V898Z" fill="#D9D9D9" fill-opacity="0.1"/>
<path d="M468 923H470V933H468V923Z" fill="#D9D9D9" fill-opacity="0.1"/>
<path d="M468 948H470V958H468V948Z" fill="#D9D9D9" fill-opacity="0.1"/>
<path d="M468 973H470V983H468V973Z" fill="#D9D9D9" fill-opacity="0.1"/>
<path d="M468 998H470V1008H468V998Z" fill="#D9D9D9" fill-opacity="0.1"/>
<path d="M468 1023H470V1033H468V1023Z" fill="#D9D9D9" fill-opacity="0.1"/>
<path d="M468 1048H470V1058H468V1048Z" fill="#D9D9D9" fill-opacity="0.1"/>
<path d="M468 1073H470V1083H468V1073Z" fill="#D9D9D9" fill-opacity="0.1"/>
<path d="M468 1098H470V1108H468V1098Z" fill="#D9D9D9" fill-opacity="0.1"/>
<path d="M468 1123H470V1133H468V1123Z" fill="#D9D9D9" fill-opacity="0.1"/>
<path d="M468 1148H470V1158H468V1148Z" fill="#D9D9D9" fill-opacity="0.1"/>
<path d="M468 1173H470V1183H468V1173Z" fill="#D9D9D9" fill-opacity="0.1"/>
<path d="M468 1198H470V1208H468V1198Z" fill="#D9D9D9" fill-opacity="0.1"/>
<path d="M468 1223H470V1233H468V1223Z" fill="#D9D9D9" fill-opacity="0.1"/>
</svg>
